/* XPM */
static char *dummy[]={
"64 64 4 1",
". c #000000",
"# c #3b3b3b",
"a c #808080",
"b c #c0c0c0",
"................................................................",
".##############################################################.",
".#######a######################################################.",
".##bbbb#babbb#bbbbbabbabbbbbbbbbbbbbbbbbbbbbbbbbbbbbbbbbbbbbb##.",
".##b###b#bbbb#bbbbbbabbbbbbbbbbbbbbbbbbbbbbbbbbbbbbbbbbbbbbbb##.",
".##bbb#babab##bb#bbbbbbbbabbbabbbbbbbbbbbbbabb#bbbabbbbbbbbbb##.",
".##a#bbab#bb#babbbbbbbabbbbaabbbbbabbbbbbb#bbaa#bababbbbbbbbb##.",
".##bbbbaba#bb#babbbbbbbbb##b#b#bbbabbbbbbbbbb#a##abba#bbbbbbb##.",
".##bbbbbaabb##bbb#bbbb#bb#b#bbbbbbbbbbbbbbbbbbbbbbbbabbbbbbbb##.",
".a#bbbbbbba###bbbbbbbbb#bbbbbbbbbbbbbbbbbabbbabbbaa##abbbbbbb##.",
".##baa##bbbbb#bbb#bbbbb#a#bb#bbbb##bbbbbaab#ba#bbaabbb#bbbbbb##.",
".###b#bbbabbab##bbbbbb###babbabbbbbbbbbbbbbbbbbbb#bbbbbbbbbbb##.",
".##ab##a#bb##aaabbbbbbabb#bb#b#bbb#babbaab#abbbaab#b#bb#bbbbb##.",
".##b##a##bbabbb#bbbbbbb#bbbbb#babb#bbbbabbbbabbbbbbaabbbbbbbb##.",
".###bb##bba#bbbbbababb##babbb##bbbbaabbababbbbb#bbbbabbbbbbbb##.",
".##bbbab#bbbabbbbbbbabaa#bb##a#bbbb#abbb#b##b##bbabbbbbbbbbbb##.",
".##bbbbb#bbbbbbbabbbbabaa#bbbbbbbaaababbbbbb#b#baabbb#bbbbbbb##.",
".##bbbbbb#bbbbaababbab##bbbbabbbbbb#bbbbabbbbbbbaba###bbbbbbb##.",
".##bbbabbabab#bbbb#bb#bbbbbbb#b#bbaabbbbbbbb#a#bbbbbbbbbbbbbb##.",
".##bbbabbbbbbabbaabbbbb#abbbbbbbbbbabbbbbbbb#bbbbbbabaabbbbbb##.",
".##bbabbbb#bba##b#bbbbbbb###bb#bbbbbaaabababbbb#bbbbbbbbbabbb##.",
".##babb#bbbbbaba####babb#b#ab##abbbbbabaabbbbabbbbbbbbabaabbb##.",
".##bbbbba##b#bbbbbba#bbb#bbbbbbba#bbbabbabbbabbbbbbabbbbbbbbb##.",
".##bbbbbbbbb#bbbba#bbbbbb#bbbbb##bbbbbabbbbbbbbbb#bbbbbbbbbbb##.",
".##bb#bbb#babbbbbab##bbbbbb#bbbbbbbbbbbbbbbbbbbba#bbbbbabbbbba#.",
".##bbbb#ba#b#babbbb#bbbbabbb###bbbbbbbbbba##bb####bb#bbbbbbba##.",
".##bbbbbbb#bbbba#b##bbbbb#bbb###bbbbabbbbabb#bbabbb#babbbbbbaa#.",
".##bbb#bbb#babaa#bbb#bbabbbbb#bbbbaabbbbbbb##bbb#bb#b#abbbbba##.",
".##bbbbbbbbbab#bb##b#b#bbbbbb#b#bbabbab#bb#bbb#b#ba#bb#bbbbab##.",
".##bbbb#b##bababab#b#b#b#bbbbaabbb#bab##abbbb#bbaabb#aaaabbbb##.",
".##bbabbbb##bb#abbbbbaaaaaaa#bbbbbbbbabb#bbabb#bbbb#bbbbbbabb##.",
".##babba#abbabbab#bab#bab#bb#aa##bbbabbbbbbb#bbb#bbbbbbbbbbab##.",
".##bbbaabbbbbaab#bbbabbbaba#abbb#bbabaa#bbbbba##aabb#abbbbbbb##.",
".##bba#bb#baaabbbbbbba#ba#bbaa##bbbbbbbb#b#b##a##bbbbabbbbbbb##.",
".##bbb#b#bbbbbbabbbbbbbb#bbbabb#aaaabaaabbbaab#bbbabbbaaabbbb##.",
".##bbbbaabab#bbbbbbbb#bb#bb#b##bb#abbbbbb##b#babbbbbb#bbbbbbb##.",
".##b#bbbbb#bbbbbbbbb##aaa#a#bb##b#babbbabab##bbbbbbbabbbbbbbb##.",
".##bbab#b#abb#b#baabbbbaba#aabb##bbbbbbbbbababbbbbbabbbbabbbb##.",
".##bbbbbb#bbb#ababbba#aabb#babb#b#ababbabbbbbbaabbbbbbbabbbbb##.",
".##bbbb##bb#a#babbbbb#ab#bbbb#babababbbabbbbbabbbababbbabbbbb##.",
".##bbbbb##bbbabbbbbb#a#abb#aaba##bbbbbabbbabbbbbbbbbabbbbbbbb##.",
".##b#bb#ab#bb#bbbabbabbbbabaabbabbbbbabbbbbb#ababbbbbbbbbbbbb##.",
".##bbbbb#b###bb#abbbababbbbb##bbbbbbaba#bba#bbbbbbbbbbaabbabb##.",
".###bbb##b#bbbbbbbbbbbbab#bbbabbbbabb#aa#b#abbbbbabbbaabbbbbb##.",
".##babbb#bbbbbb#bbabbbbbbabbbaab#bbb##bbabb#bbabb#bbbbbabbbbb##.",
".##babbbbbbbba#babbababbabbbbbbbb##bbb#bbbb#b#bb#bbbbbbbbbbbb#a.",
".##bbab#bbb#bbabbabbbabababb#bbbbbb#bbbbaabbbbbb#bbbbbbbbbbbb##.",
".##bababbbbbb#bbb#bbbbbbbbab#b#bbbbbbbbb#ababbabbbbbbbbbbbbbba#.",
".##bbbbbab#bbbb#bbbabbbbbbbbbbbbbbbb#b#b#bb##bbbb#bbbbbbabbbb#aa",
".##bbbbbbbbabbbbbbabbaababbabb#bbbbb##b#bbbbbbbb#bbbbbbbbbabb##.",
".##bbb#bbbb#a#bbbb#bbbbaa#bbbb#bbbbbb#bbbbb#b##ba#ababbbabbab##.",
".##bbbab#bbbb#b##ababbbbbbb#bb##bbbb##bbbbab#bbb#baaabbabbbbb##.",
".##ababbb#bbbababbbbbabbbbbbbbbbb#bbabbb##bbbbabbbbaabbbbbabba#.",
".##b##b#bbbbbb#babbbabbbab#bbabab#bb#bbbbbb#ba#bbbbbbbbabbbab##.",
".##bbb##abbb#b#babb#bbbbababbbbabbbbb#b#b#b#bbbbbbbbbbabbbbbb##.",
".##bbbbb#babbab##bbbbbbbbb#bbbbb#bbbbbbbbbbbbbabababbbbbbbbbb##.",
".##bbb#bbbbbb#b#bb#bbabbbabb#bbabbbbababbbbaabbbbbbbbbbbbbbbb##.",
".##bbbbbb#ab#bbbbbbbbbbbbb#bbbabb#bbbb#bbabaabbbbbbbbbbbbbbbb##.",
".##bbbbbb###bbbbbbbbbbbbbbbabbbbbbbb#bbbbbabbbbbbbbbbbbbbbbbb##.",
".##bbbbbbbbbbb#bbb#bbbabbbbbbbbbbbbbbbbbabbbbabbbbbbbbbbbbbbb##.",
".##bbbbbbbb##b##bbbbbbabbbbbbbbbbbbbbbbbbbbbbbbbbbbbbbbbbbbbb##.",
".##############################################################.",
".##############################################################.",
"................................................................"};
