/* XPM */
static char *dummy[]={
"64 64 4 1",
". c #000000",
"# c #330000",
"b c #663300",
"a c #996600",
".................#a##bbaaabbbb#..................#a##bbaaabbbb#.",
".##############..#aaabbaaabbba#..##############..#aaabbaaabbba#.",
".#aaabaaaabaaa#..#aaabbaaabbaa#..#aaabaaaabaaa#..#aaabbaaabbaa#.",
".#aaabaaaabaaa#..#aaabbaaabbaa#..#aaabaaaabaaa#..#aaabbaaabbaa#.",
".#aaabaaaab#aa#..#aaabbaaabbaa#..#aaabaaaab#aa#..#aaabbaaabbaa#.",
".#aaabaaaabaaa#..#aaabbaaabbaa#..#aaabaaaabaaa#..#aaabbaaabbaa#.",
".#a##baa#abaaa#..#aaabbaaabbaa#..#a##baa#abaaa#..#aaabbaaabbaa#.",
".#aaabaaaabaaa#..#aaabbaaabbaa#..#aaabaaaabaaa#..#aaabbaaabbaa#.",
".#aaabaaaabaaa#..#aaabbaa#bbaa#..#aaabaaaabaaa#..#aaabbaa#bbaa#.",
".#aaabaaaabaaa#..#aaabbaaabbaa#..#aaabaaaabaaa#..#aaabbaaabbaa#.",
".#aaabaaaabaaa#..#aaabbaaabbaa#..#aaabaaaabaaa#..#aaabbaaabbaa#.",
".#aaabbbaaba#a#..#aaabbaaabbaa#..#aaabbbaaba#a#..#aaabbaaabbaa#.",
".#aaabbbbabaaa#..#aaabbaaabb#a#..#aaabbbbabaaa#..#aaabbaaabb#a#.",
".#aaab##babaaa#..#aa#bbaaabbaa#..#aaab##babaaa#..#aa#bbaaabbaa#.",
".#aaab##babaaa#..#aaabbaaabbaa#..#aaab##babaaa#..#aaabbaaabbaa#.",
".#aaabbbbabaaa#..#aaabbaaabbaa#..#aaabbbbabaaa#..#aaabbaaabbaa#.",
".#aaabbbaabbaa#..#aaabaaaabbaa#..#aaabbbaabbaa#..#aaabaaaabbaa#.",
".#aaabbbaabbaa#..#aaabaaaabbaa#..#aaabbbaabbaa#..#aaabaaaabbaa#.",
".#aaabbaaabbaa#..#aaabaaaabbaa#..#aaabbaaabbaa#..#aaabaaaabbaa#.",
".#aaabbaaabbaa#..#aa#bbbaabbaa#..#aaabbaaabbaa#..#aa#bbbaabbaa#.",
".#aaabbaaabbaa#..#aaab##babbaa#..#aaabbaaabbaa#..#aaab##babbaa#.",
".#aaabbaaabbaa#..#aaab##babbaa#..#aaabbaaabbaa#..#aaab##babbaa#.",
".#aaabbaaabbaa#..#aaabbbbabbaa#..#aaabbaaabbaa#..#aaabbbbabbaa#.",
".#a##bbaaabbaa#..#aaabbbaabbaa#..#a##bbaaabbaa#..#aaabbbaabbaa#.",
".#aaabbaaabbaa#..#aaabaaaabbaa#..#aaabbaaabbaa#..#aaabaaaabbaa#.",
".#aaabbaaabbaa#..#aaabaaa#bbaa#..#aaabbaaabbaa#..#aaabaaa#bbaa#.",
".#aaabbaaabbaa#..#aaabaaa#bbaa#..#aaabbaaabbaa#..#aaabaaa#bbaa#.",
".#aaabbaaabbaa#..#aaabaaaabbaa#..#aaabbaaabbaa#..#aaabaaaabbaa#.",
".#aaabbaaabbaa#..#aaabaaaabaaa#..#aaabbaaabbaa#..#aaabaaaabaaa#.",
".#aaabb#aabbbb#..#aaabaaaabaaa#..#aaabb#aabbbb#..#aaabaaaabaaa#.",
".#aaabbaaab##b#..##############..#aaabbaaab##b#..##############.",
".#a#abbaaab##b#..................#a#abbaaab##b#.................",
".#a##bbaaabbbb#..................#a##bbaaabbbb#.................",
".#aaabbaaabbba#..##############..#aaabbaaabbba#..##############.",
".#aaabbaaabbaa#..#aaabaaaabaaa#..#aaabbaaabbaa#..#aaabaaaabaaa#.",
".#aaabbaaabbaa#..#aaabaaaabaaa#..#aaabbaaabbaa#..#aaabaaaabaaa#.",
".#aaabbaaabbaa#..#aaabaaaab#aa#..#aaabbaaabbaa#..#aaabaaaab#aa#.",
".#aaabbaaabbaa#..#aaabaaaabaaa#..#aaabbaaabbaa#..#aaabaaaabaaa#.",
".#aaabbaaabbaa#..#a##baa#abaaa#..#aaabbaaabbaa#..#a##baa#abaaa#.",
".#aaabbaaabbaa#..#aaabaaaabaaa#..#aaabbaaabbaa#..#aaabaaaabaaa#.",
".#aaabbaa#bbaa#..#aaabaaaabaaa#..#aaabbaa#bbaa#..#aaabaaaabaaa#.",
".#aaabbaaabbaa#..#aaabaaaabaaa#..#aaabbaaabbaa#..#aaabaaaabaaa#.",
".#aaabbaaabbaa#..#aaabaaaabaaa#..#aaabbaaabbaa#..#aaabaaaabaaa#.",
".#aaabbaaabbaa#..#aaabbbaaba#a#..#aaabbaaabbaa#..#aaabbbaaba#a#.",
".#aaabbaaabb#a#..#aaabbbbabaaa#..#aaabbaaabb#a#..#aaabbbbabaaa#.",
".#aa#bbaaabbaa#..#aaab##babaaa#..#aa#bbaaabbaa#..#aaab##babaaa#.",
".#aaabbaaabbaa#..#aaab##babaaa#..#aaabbaaabbaa#..#aaab##babaaa#.",
".#aaabbaaabbaa#..#aaabbbbabaaa#..#aaabbaaabbaa#..#aaabbbbabaaa#.",
".#aaabaaaabbaa#..#aaabbbaabbaa#..#aaabaaaabbaa#..#aaabbbaabbaa#.",
".#aaabaaaabbaa#..#aaabbbaabbaa#..#aaabaaaabbaa#..#aaabbbaabbaa#.",
".#aaabaaaabbaa#..#aaabbaaabbaa#..#aaabaaaabbaa#..#aaabbaaabbaa#.",
".#aa#bbbaabbaa#..#aaabbaaabbaa#..#aa#bbbaabbaa#..#aaabbaaabbaa#.",
".#aaab##babbaa#..#aaabbaaabbaa#..#aaab##babbaa#..#aaabbaaabbaa#.",
".#aaab##babbaa#..#aaabbaaabbaa#..#aaab##babbaa#..#aaabbaaabbaa#.",
".#aaabbbbabbaa#..#aaabbaaabbaa#..#aaabbbbabbaa#..#aaabbaaabbaa#.",
".#aaabbbaabbaa#..#a##bbaaabbaa#..#aaabbbaabbaa#..#a##bbaaabbaa#.",
".#aaabaaaabbaa#..#aaabbaaabbaa#..#aaabaaaabbaa#..#aaabbaaabbaa#.",
".#aaabaaa#bbaa#..#aaabbaaabbaa#..#aaabaaa#bbaa#..#aaabbaaabbaa#.",
".#aaabaaa#bbaa#..#aaabbaaabbaa#..#aaabaaa#bbaa#..#aaabbaaabbaa#.",
".#aaabaaaabbaa#..#aaabbaaabbaa#..#aaabaaaabbaa#..#aaabbaaabbaa#.",
".#aaabaaaabaaa#..#aaabbaaabbaa#..#aaabaaaabaaa#..#aaabbaaabbaa#.",
".#aaabaaaabaaa#..#aaabb#aabbbb#..#aaabaaaabaaa#..#aaabb#aabbbb#.",
".##############..#aaabbaaab##b#..##############..#aaabbaaab##b#.",
".................#a#abbaaab##b#..................#a#abbaaab##b#."};
