/* XPM */
static char *dummy[]={
"64 64 4 1",
". c #000000",
"a c #330000",
"b c #663300",
"# c #996600",
".................##aabb###bbbb#..................####bb###bbb##.",
".a###b#a#####a#..####bb###bbb##..a###b#a#####a#..####bb###bb###.",
".####b####b####..####bb###bb###..####b####b####..a###bb###bb###.",
".####b####b####..a###bb###bb###..####b####b####..####bb###bb##a.",
".####b####ba###..####bb###bb##a..####b####ba###..####bb###bb###.",
".####b####b####..####bb###bb###..####b####b####..####bb###bb###.",
".##aab##a#b###a..####bb###bb###..##aab##a#b###a..####bb###bb###.",
".a###b####b####..####bb###bb###..a###b####b####..####bb##abb###.",
".####b####b####..####bb##abb###..####b####b####..a###bb###bb###.",
".####b####b####..a###bb###bb###..####b####b####..####bb###bb##a.",
".####b####b####..####bb###bb##a..####b####b####..####bb###bb###.",
".a###bbb##b#a##..####bb###bb###..a###bbb##b#a##..####bb###bba##.",
".####bbbb#b###a..####bb###bba##..####bbbb#b###a..###abb###bb###.",
".####baab#b####..###abb###bb###..####baab#b####..####bb###bb###.",
".####baab#b####..####bb###bb###..####baab#b####..a###bb###bb###.",
".####bbbb#b####..a###bb###bb###..####bbbb#b####..####b####bb##a.",
".####bbb##bb###..####b####bb##a..####bbb##bb###..####b####bb###.",
".a###bbb##bb###..####b####bb###..a###bbb##bb###..####b####bb###.",
".####bb###bb##a..####b####bb###..####bb###bb##a..###abbb##bb###.",
".####bb###bb###..###abbb##bb###..####bb###bb###..####baab#bb###.",
".####bb###bb###..####baab#bb###..####bb###bb###..a###baab#bb###.",
".####bb###bb###..a###baab#bb###..####bb###bb###..####bbbb#bb##a.",
".####bb###bb###..####bbbb#bb##a..####bb###bb###..####bbb##bb###.",
".a#aabb###bb###..####bbb##bb###..a#aabb###bb###..####b####bb###.",
".####bb###bb##a..####b####bb###..####bb###bb##a..####b###abb###.",
".####bb###bb###..####b###abb###..####bb###bb###..####b###abb###.",
".####bb###bb###..####b###abb###..####bb###bb###..a###b####bb###.",
".####bb###bb###..a###b####bb###..####bb###bb###..####b####b###a.",
".####bb###bb###..####b####b###a..####bb###bb###..####b####b####.",
".a###bba##bbbb#..####b####b####..a###bba##bbbb#..###a#####a####.",
".####bb###baaba..###a#####a####..####bb###baaba.................",
".##a#bb###baab#..................##a#bb###baab#.................",
".##aabb###bbbb#..................##aabb###bbbb#..a###b#a#####a#.",
".####bb###bbb##..a###b#a#####a#..####bb###bbb##..####b####b####.",
".####bb###bb###..####b####b####..####bb###bb###..####b####b####.",
".a###bb###bb###..####b####b####..a###bb###bb###..####b####ba###.",
".####bb###bb##a..####b####ba###..####bb###bb##a..####b####b####.",
".####bb###bb###..####b####b####..####bb###bb###..##aab##a#b###a.",
".####bb###bb###..##aab##a#b###a..####bb###bb###..a###b####b####.",
".####bb###bb###..a###b####b####..####bb###bb###..####b####b####.",
".####bb##abb###..####b####b####..####bb##abb###..####b####b####.",
".a###bb###bb###..####b####b####..a###bb###bb###..####b####b####.",
".####bb###bb##a..####b####b####..####bb###bb##a..a###bbb##b#a##.",
".####bb###bb###..a###bbb##b#a##..####bb###bb###..####bbbb#b###a.",
".####bb###bba##..####bbbb#b###a..####bb###bba##..####baab#b####.",
".###abb###bb###..####baab#b####..###abb###bb###..####baab#b####.",
".####bb###bb###..####baab#b####..####bb###bb###..####bbbb#b####.",
".a###bb###bb###..####bbbb#b####..a###bb###bb###..####bbb##bb###.",
".####b####bb##a..####bbb##bb###..####b####bb##a..a###bbb##bb###.",
".####b####bb###..a###bbb##bb###..####b####bb###..####bb###bb##a.",
".####b####bb###..####bb###bb##a..####b####bb###..####bb###bb###.",
".###abbb##bb###..####bb###bb###..###abbb##bb###..####bb###bb###.",
".####baab#bb###..####bb###bb###..####baab#bb###..####bb###bb###.",
".a###baab#bb###..####bb###bb###..a###baab#bb###..####bb###bb###.",
".####bbbb#bb##a..####bb###bb###..####bbbb#bb##a..a#aabb###bb###.",
".####bbb##bb###..a#aabb###bb###..####bbb##bb###..####bb###bb##a.",
".####b####bb###..####bb###bb##a..####b####bb###..####bb###bb###.",
".####b###abb###..####bb###bb###..####b###abb###..####bb###bb###.",
".####b###abb###..####bb###bb###..####b###abb###..####bb###bb###.",
".a###b####bb###..####bb###bb###..a###b####bb###..####bb###bb###.",
".####b####b###a..####bb###bb###..####b####b###a..a###bba##bbbb#.",
".####b####b####..a###bba##bbbb#..####b####b####..####bb###baaba.",
".###a#####a####..####bb###baaba..###a#####a####..##a#bb###baab#.",
".................##a#bb###baab#..................a#a#bb###baaba."};
