/* XPM */
static char *dummy[]={
"64 64 4 1",
". c #000000",
"a c #330000",
"b c #663300",
"# c #996600",
".................##aabb###bbbba..................##aabb###bbbb#.",
".##############..####bb###bbb##..##############..####bb###bbb##.",
".####b####b####..####bb###bb###..####b####b####..####bb###bb###.",
".####b####b####..####bb###bb###..####b####b####..####bb###bb###.",
".####b####ba###..####bb###bb###..####b####ba###..####bb###bb###.",
".####b####b####..####bb###bb###..####b####b####..####bb###bb###.",
".##aab##a#b####..####bb###bb###..##aab##a#b####..####bb###bb###.",
".####b####b####..####bb###bb###..####b####b####..####bb###bb###.",
".####b####b####..####bb##abb###..####b####b####..####bb##abb###.",
".####b####b####..####bb###bb###..####b####b####..####bb###bb###.",
".####b####b####..####bb###bb###..####b####b####..####bb###bb###.",
".####bbb##b#a##..####bb###bb###..####bbb##b#a##..####bb###bb###.",
".####bbbb#b####..####bb###bba##..####bbbb#b####..####bb###bba##.",
".####baab#b####..###abb###bb###..####baab#b####..###abb###bb###.",
".####baab#b####..####bb###bb###..####baab#b####..####bb###bb###.",
".####bbbb#b####..####bb###bb###..####bbbb#b####..####bb###bb###.",
".####bbb##bb###..####b####bb###..####bbb##bb###..####b####bb###.",
".####bbb##bb###..####b####bb###..####bbb##bb###..####b####bb###.",
".####bb###bb###..####b####bb###..####bb###bb###..####b####bb###.",
".####bb###bb###..###abbb##bb###..####bb###bb###..###abbb##bb###.",
".####bb###bb###..####baab#bb###..####bb###bb###..####baab#bb###.",
".####bb###bb###..####baab#bb###..####bb###bb###..####baab#bb###.",
".####bb###bb###..####bbbb#bb###..####bb###bb###..####bbbb#bb###.",
".##aabb###bb###..####bbb##bb###..##aabb###bb###..####bbb##bb###.",
".####bb###bb###..####b####bb###..####bb###bb###..####b####bb###.",
".####bb###bb###..####b###abb###..####bb###bb###..####b###abb###.",
".####bb###bb###..####b###abb###..####bb###bb###..####b###abb###.",
".####bb###bb###..####b####bb###..####bb###bb###..####b####bb###.",
".####bb###bb###..####b####b####..####bb###bb###..####b####b####.",
".####bba##bbbb#..####b####b####..####bba##bbbb#..####b####b####.",
".####bb###baab#..##############..####bb###baab#..##############.",
".##a#bb###baab#..................##a#bb###baab#.................",
".##aabb###bbbb#..................##aabb###bbbb#.................",
".####bb###bbb##..##############..####bb###bbb##..##############.",
".####bb###bb###..####b####b####..####bb###bb###..####b####b####.",
".####bb###bb###..####b####b####..####bb###bb###..####b####b####.",
".####bb###bb###..####b####ba###..####bb###bb###..####b####ba###.",
".####bb###bb###..####b####b####..####bb###bb###..####b####b####.",
".####bb###bb###..##aab##a#b####..####bb###bb###..##aab##a#b####.",
".####bb###bb###..####b####b####..####bb###bb###..####b####b####.",
".####bb##abb###..####b####b####..####bb##abb###..####b####b####.",
".####bb###bb###..####b####b####..####bb###bb###..####b####b####.",
".####bb###bb###..####b####b####..####bb###bb###..####b####b####.",
".####bb###bb###..####bbb##b#a##..####bb###bb###..####bbb##b#a##.",
".####bb###bba##..####bbbb#b####..####bb###bba##..####bbbb#b####.",
".###abb###bb###..####baab#b####..###abb###bb###..####baab#b####.",
".####bb###bb###..####baab#b####..####bb###bb###..####baab#b####.",
".####bb###bb###..####bbbb#b####..####bb###bb###..####bbbb#b####.",
".####b####bb###..####bbb##bb###..####b####bb###..####bbb##bb###.",
".####b####bb###..####bbb##bb###..####b####bb###..####bbb##bb###.",
".####b####bb###..####bb###bb###..####b####bb###..####bb###bb###.",
".###abbb##bb###..####bb###bb###..###abbb##bb###..####bb###bb###.",
".####baab#bb###..####bb###bb###..####baab#bb###..####bb###bb###.",
".####baab#bb###..####bb###bb###..####baab#bb###..####bb###bb###.",
".####bbbb#bb###..####bb###bb###..####bbbb#bb###..####bb###bb###.",
".####bbb##bb###..##aabb###bb###..####bbb##bb###..##aabb###bb###.",
".####b####bb###..####bb###bb###..####b####bb###..####bb###bb###.",
".####b###abb###..####bb###bb###..####b###abb###..####bb###bb###.",
".####b###abb###..####bb###bb###..####b###abb###..####bb###bb###.",
".####b####bb###..####bb###bb###..####b####bb###..####bb###bb###.",
".####b####b####..####bb###bb###..####b####b####..####bb###bb###.",
".####b####b####..####bba##bbbb#..####b####b####..####bba##bbbb#.",
".##############..####bb###baab#..##############..####bb###baab#.",
".................##a#bb###baab#..................##a#bb###baaba."};
