/* XPM */
static char *dummy[]={
"50 50 4 1",
". c None",
"a c #ff0000",
"# c #ffff00",
"b c #ffffff",
"..................................................",
".............................#....................",
"............................#.....................",
"...........................##.....................",
".........................#####....................",
"........................#######...................",
".......................########...................",
".........##..........###########..................",
".........####aaaa...#############.................",
".........###aaaaaaaaaaaaaaa######.................",
".........###aaaaaaaaaaaaaaaaaaaa##................",
"..........#aaaaaaaaaaaaaaaaaaaaaa##########.......",
"..........#aaaaaaaaaaaaaaaaaaaaaaa#########.......",
"..........aaaaaaaaaaaaaaaaaaaaaaaaaa######........",
".....##...aaaaaaaaaaaaaaaaaaaaaaaaaaa#####........",
".....####aaaaaaaaaaaaaaaaaaaaaaaaaaaaa###.........",
"......###aaaaaaaaaaaaaaaaaaaaaaaaaaaaaa##.........",
".......##aaaaaaaaaaaaaaaaaaaaaaaaaaaaaaa..........",
".......#aaaaaaaaaaaaaaaaaaaaaaaaaaaaaaaaaa........",
"........aaaaaaaaaaaaaaaaaaaaaaaaaaaaaaaaaaa#......",
".......aaaaaaaaaaaaaaaaaaaaaaaaaaaaaaaaaaaaa##....",
".....##aaaaaaaaaaaaaaaaaaaaaaaaaaaaaaaaaaaaa####..",
"...###aaaaaaaaaaaaaaaaaaaaaaaaaaaaaaaaaaaaa#####..",
".#####aaaaaaaaaaaaaaaaaaaaaaaaaaaaaaaaaaaaa###....",
"..###aaaaaaaaaaaaaaaaaaaaaaaaaaaaaaaaaaaaa###.....",
"....#aaaaaaaaaaaaaaaaaaaaaaaaaaaaaaaaaaaaa##......",
".....aaaaaaaaaaaaaaaaaaaaaaaaaaaaaaaaaaaa##.......",
"......aaaaaaaaaaaaaaaaaaaaaaaaaaaaaaaaaaa.........",
".......aaaaaaaaaaaaaaaaaaaaaaaaaaaaaaaaa..........",
".......aaaaaaaaaaaaaaaaaaaaaaaaaaaaaaaa...........",
"......#aaaaaaaaaaaaaaaaaaaaaaaaaaaaaaaa#..........",
"b.....##aaaaaaaaaaaaaaaaaaaaaaaaaaaaaaa#..........",
"b.....##aaaaaaaaaaaaaaaaaaaaaaaaaaaaaaa##.........",
"b....####aaaaaaaaaaaaaaaaaaaaaaaaaaaaa####........",
"bb...####aaaaaaaaaaaaaaaaaaaaaaaaaaaaa####........",
"bb...#####aaaaaaaaaaaaaaaaaaaaaaaaaaa######.......",
"bbb.######aaaaaaaaaaaaaaaaaaaaaaaaaaa#######......",
"bbb....####aaaaaaaaaaaaaaaaaaaaaaaaa########......",
"bbbb.......aaaaaaaaaaaaaaaaaaaaaaaaa####..........",
"bbbbb......#aaaaaaaaaaaaaaaaaaaaaaa...............",
"bbbbb.......#aaaaaaaaaaaaaaaaaaaaaa...............",
"bbbbbb......###aaaaaaaaaaaaaaaaaaa#...............",
"bbbbbbb......####aaaaaaaaaaaaaaaa##...............",
"bbbbbbbb.....######aaaaaaaaaa.a###................",
"bbbbbbbbb.....#####.#aaaaaaa...###................",
"bbbbbbbbbb....###....##aaa##.....#................",
"bbbbbbbbbbbb...........####.......................",
"bbbbbbbbbbbbbb..........##........................",
"bbbbbbbbbbbbbbbb.........#........................",
"bbbbbbbbbbbbbbbbbbbb.............................."};
