/* XPM */
static char *dummy[]={
"100 100 9 1",
". c None",
"a c #010000",
"g c #101010",
"# c #181818",
"f c #2e2e2e",
"e c #4b4b4b",
"b c #909090",
"c c #c0c0c0",
"d c #ffffff",
"....................................................................................................",
"....................................................................................................",
"................................................#####...............................................",
"................................................#####...............................................",
"................................................#####...............................................",
"................................................#####...............................................",
".....................................aaaaaaaa###########aaaaaaa.....................................",
"...........................aaaaaaaaaaaabbbbb#############bbbbbaaaaaaaaaaa...........................",
"......................aaaaaaccccccbbbbbbbcb###############bcbbbbbbbbbbbbaaaaaa......................",
".....................aaddccccccccccccccccc#################ccccccccccccbbbbbbaa.....................",
".....................addcccccccccccccccccccccccccccccccccccccccccccccccccccbbba.....................",
"....................aadccccc##############################################cbbbaa....................",
"....................adccccc################################################cbbba....................",
"...................aacccccc################################################cbbbaa...................",
"...................acccccc##################################################cbbba...................",
"...................accccc###################################################cbbbaa..................",
"..................aacccb####################################################cbbbba..................",
"..................accbbb#####################################################cbbba..................",
".................aacbbb######################################################cbbbaa.................",
".................accbbb##################aaaaaaaaaaaaaaaaaa##################ccbbba.................",
"................aacbbbb#################aadcccccccccccccccaa##################cbbbaa................",
"................accbbb#################aadcccccccccccccccccaa#################ccbbba................",
"................acbbbb#################adcccbbbbbbbbbbbbbbcca##################cbbbaa...............",
"...............aacbbb##################acccbbbbeeeeeeeeeebcca##################cbbbba...............",
"...............accbbb##################accbbbbeeeeeeeeeeebbba##################ccbbbaa..............",
"..............aacbbb###################accbbeeeeeeeeeeeeeeeea###################cbbbba..............",
"..............accbbb###################acbbeeeeeeeeeeeeeeeeea###################ccbbbaa.............",
".............aacbbb####################abbeeeeeeeeeeeeeeeeeea####################cbbbba.............",
".............accbbbbbbb################abeeeeeeeeeeeeeeeeeeea################cccccbbbba.............",
".............a#########################aeeeeeeeeeeeeeeeeeeeea#########################a.............",
".............a#########################aeeeeeeeeeeeeeeeeeeeea#########################aa............",
"............a##########################aeeeeeeeeeeeeeeeeeeefa##########################a............",
"............a##########################aeeeeeeeeeeeeeeeeeeffa##########################a............",
"...........aa##########################aeeeeeeeeeeeeeeeeefffa##########################aa...........",
"...........a###########################aeeeeeeeeeeeeeeeeffffa###########################a...........",
"..........aa###########################aeeeeeeeeeeeeeeefffffa###########################aa..........",
"..........a############################afeeeeeeeeeeeeeffffffa############################a..........",
"..........a############################affeeeeeeeeeeefffffffa############################a..........",
"..........a############################afffeeeeeeeeeffffffffag###########################a..........",
"..........a############################aafffeeeeeeeffffffffaagg##########################a..........",
"..........a#############################aaffffffffffffffffaaggg##########################a..........",
"..........a##############################aaffffffffffffffaagggg##########################a..........",
"..........a###############################aaaaaaaaaaaaaaaaggggg##########################a..........",
"..........a###########################################ggggggggg##########################a..........",
"..........a############################################ggggggg###########################a..........",
"..........a##############################################ggg#############################a..........",
"..........a##############################################################################a..........",
"..........aa############################################################################aa..........",
"...........a############################################################################a...........",
"...........aa##########################################################################aa...........",
"............a##########################################################################a............",
"............a##########################################################################a............",
"............aa########################################################################aa............",
".............a########################################################################a.............",
".............a########################################################################a.............",
".............aa######################################################################aa.............",
"..............a######################################################################a..............",
"..............aa####################################################################aa..............",
"...............a####################################################################a...............",
"...............a####################################################################a...............",
"...............aa##################################################################aa...............",
"................a#################################################################aa................",
"................aa################################################################a.................",
".................a################################################################a.................",
".................a###############################################################aa.................",
".................aa##############################################################a..................",
"..................a##############################################################a..................",
"..................a##############################################################a..................",
"..................aa##########################################################eeaa..................",
"...................a#########################################################eeaa...................",
"...................aa####################################################eeeeeea....................",
"....................a################################################eeeeeeeeeea....................",
"....................aaaa#######################################eeeeeeeeeeeeeeaaa....................",
"....................affaaaaa################################eeeeeeeeeeeeaaaaaafa....................",
"....................aafffffaaaaaa##########################eeeeeeeeeaaaaafffffaa....................",
".....................affffffff#e#aaaaa####################eeeeeaaaaaae#fffffffa.....................",
".....................affffffff#e#ff#eaaaaaaaaaaaaaaaaaaaaaaaaaaae#f#e#ffffffffa.....................",
".....................afffffffff#e#ff#e#ffffffffff#ee#fffffffff#e#ff#e#fffffffaa.....................",
".....................aaffffffff#e#ff#e#ffffffffff#ee#fffffffff#e#f#e#ffffffffa......................",
"......................afffffffff#e#ff#e#fffffffff#ee#ffffffff#e#ff#e#ffffffffa......................",
"......................afffffffff#e#ff#e##ffffffff#ee#fffffff#e#ff#e#fffffffffa......................",
"......................affffffffff#e#f##e#ffffffff#ee#ffffff##e#f##e#fffffffffa......................",
"......................aafffffffff#e#ff#e#ffffffff#ee#ffffff#e#ff#e#fffffffffaa......................",
".......................affffffffff#e#f#e#ffffffff#ee#ffffff#e#ff#e#fffffffffa.......................",
".......................affffffffff#e#f#e#ffffffff#ee#ffffff#e#ff#e#fffffffffa.......................",
".......................affffffffff#e#f#e#ffffffff#ee#ffffff#e#ff#e#fffffffffa.......................",
"......................aaffffffffff#e#f#e#ffffffff#ee#ffffff#e#ff#e#fffffffffa.......................",
"......................afffffffffff#e#f#e#ffffffff#ee#ffffff#e#ff#e#fffffffffaa......................",
"......................afffffffffff#e#f#e#ffffffff#ee#ffffff#e#ff#e#ffffffffffa......................",
"......................afffffffffff#e#f#e#ffffffff#ee#ffffff#e#ff#e#ffffffffffa......................",
"......................afffffffffff#e#f#e#ffffffff#ee#ffffff#e#ff#e#ffffffffffa......................",
"......................afffffffffff#e#f#e#ffffffff#ee#ffffff#e#ff#e#ffffffffffa......................",
"......................afffffffffff#e#f#e#ffffffff#ee#ffffff#e#ff#e#ffffffffffa......................",
"......................afffffffffff#e#f#e#ffffffff#ee#ffffff#e#ff#e#ffffffffffa......................",
".....................aafffffffffff#e#f#e#ffffffff#ee#ffffff#e#ff#e#ffffffffffa......................",
".....................affffffffffff#e#f#e#ffffffff#ee#ffffff#e#ff#e#ffffffffffaa.....................",
".....................affffffffffff#e#f#e#ffffffff#ee#ffffff#e#ff#e#fffffffffffa.....................",
".....................affffffffffff#e#f#e#ffffffff#ee#ffffff#e#ff#e#fffffffffffa.....................",
".....................affffffffffff#e#f#e#ffffffff#ee#ffffff#e#ff#e#fffffffffffa.....................",
".....................affffffffffff#e#f#e#ffffffff#ee#ffffff#e#ff#e#fffffffffffa....................."};
