/* XPM */
static char *dummy[]={
"64 64 10 1",
"# c #000000",
"c c #000080",
"d c #0000ff",
"g c #008080",
"h c #00ffff",
"b c #010000",
"e c #8003c9",
"a c #808080",
"f c #ff00ff",
". c #ffffff",
"................................................................",
"................................................................",
"................................................................",
"################################################################",
"#aaaaaaaaaaaaaaaaaaaaabbbbccccccccccccbbbbaaaaaaaaaaaaaaaaaaaaa#",
"#aaaaaaaaaaaaaaaaaabbbccccddddddddddddccccbbbaaaaaaaaaaaaaaaaaa#",
"#aaaaaaaaaaaaaaaabbcccddddddddddddddddddddcccbbaaaaaaaaaaaaaaaa#",
"#aaaaaaaaaaaaaabbccddddddddddddddddddddddddddccbbaaaaaaaaaaaaaa#",
"#aaaaaaaaaaaaabccddddddddddddddddddddddddddddddccbaaaaaaaaaaaaa#",
"#aaaaaaaaaaabbcddddddddddddddddddddddddddddddddddcbbaaaaaaaaaaa#",
"#aaaaaaaaaabccddddddddddddddddddddddddddddddddddddccbaaaaaaaaaa#",
"#aaaaaaaaabceeeeeeeeeeeeeeeeeeeeeeeeeeeeeeeeeeeeeeeecbaaaaaaaaa#",
"#aaaaaaaabceeeffffffffffffffffffffffffffffffffffffeeecbaaaaaaaa#",
"#aaaaaaabcdeeffffffffffffffggggggggggffffffffffffffeedcbaaaaaaa#",
"#aaaaaabcddeffffffffffffgggghhhhhhhhggggffffffffffffeddcbaaaaaa#",
"#aaaaabcdddefffffffffffgghhhhhhhhhhhhhhggfffffffffffedddcbaaaaa#",
"#aaaabcddddefffffffffggghhhhhhhhhhhhhhhhgggfffffffffeddddcbaaaa#",
"#aaaabcddddeffffffffgghhhhhhhhhhhhhhhhhhhhggffffffffeddddcbaaaa#",
"#aaabcdddddefffffffgghhhhhhhhhhhhhhhhhhhhhhggfffffffedddddcbaaa#",
"#aabcddddddeffffffgghhhhhhhhhhhhhhhhhhhhhhhhggffffffeddddddcbaa#",
"#aabcddddddefffffgghhhhhhhhhhhhhhhhhhhhhhhhhhggfffffeddddddcbaa#",
"#abcdddddddeffffgghhhhhhhhhhhhhhhhhhhhhhhhhhhhggffffedddddddcba#",
"#abcdddddddeffffghhhhhhhhhhhhhhhhhhhhhhhhhhhhhhgffffedddddddcba#",
"#bcddddddddefffgghhhhhhhhhhhhhhhhhhhhhhhhhhhhhhggfffeddddddddcb#",
"#bcddddddddeffgghhhhhhhhhhhhhhhhhhhhhhhhhhhhhhhhggffeddddddddcb#",
"#bcddddddddeffghhhhhhhhhhhhhhhhhhhhhhhhhhhhhhhhhhgffeddddddddcb#",
"#cdddddddddeffghhhhhhhhhhhhhhhhhhhhhhhhhhhhhhhhhhgffedddddddddc#",
"#cdddddddddefgghhhhhhhhhhhhhhhhhhhhhhhhhhhhhhhhhhggfedddddddddc#",
"#cdddddddddefghhhhhhhhhhhhhhhhhhhhhhhhhhhhhhhhhhhhgfedddddddddc#",
"#cdddddddddefghhhhhhhhhhhhhhhhhhhhhhhhhhhhhhhhhhhhgfedddddddddc#",
"#cdddddddddefghhhhhhhhhhhhhhhhhhhhhhhhhhhhhhhhhhhhgfedddddddddc#",
"#cdddddddddefghhhhhhhhhhhhhhhhhhhhhhhhhhhhhhhhhhhhgfedddddddddc#",
"#cdddddddddefghhhhhhhhhhhhhhhhhhhhhhhhhhhhhhhhhhhhgfedddddddddc#",
"#cdddddddddefghhhhhhhhhhhhhhhhhhhhhhhhhhhhhhhhhhhhgfedddddddddc#",
"#cdddddddddefghhhhhhhhhhhhhhhhhhhhhhhhhhhhhhhhhhhhgfedddddddddc#",
"#cdddddddddefghhhhhhhhhhhhhhhhhhhhhhhhhhhhhhhhhhhhgfedddddddddc#",
"#cdddddddddefghhhhhhhhhhhhhhhhhhhhhhhhhhhhhhhhhhhhgfedddddddddc#",
"#cdddddddddefghhhhhhhhhhhhhhhhhhhhhhhhhhhhhhhhhhhhgfedddddddddc#",
"#cdddddddddefgghhhhhhhhhhhhhhhhhhhhhhhhhhhhhhhhhhhgfedddddddddc#",
"#cdddddddddefgghhhhhhhhhhhhhhhhhhhhhhhhhhhhhhhhhhggfedddddddddc#",
"#cdddddddddeffghhhhhhhhhhhhhhhhhhhhhhhhhhhhhhhhhhgffedddddddddc#",
"#bcddddddddeffghhhhhhhhhhhhhhhhhhhhhhhhhhhhhhhhhhgffeddddddddcb#",
"#bcddddddddeffgghhhhhhhhhhhhhhhhhhhhhhhhhhhhhhhhggffeddddddddcb#",
"#bcddddddddefffgghhhhhhhhhhhhhhhhhhhhhhhhhhhhhhggfffeddddddddcb#",
"#abcdddddddeffffghhhhhhhhhhhhhhhhhhhhhhhhhhhhhhgffffedddddddcba#",
"#abcdddddddeffffgghhhhhhhhhhhhhhhhhhhhhhhhhhhhggffffedddddddcba#",
"#aabcddddddefffffgghhhhhhhhhhhhhhhhhhhhhhhhhhggfffffeddddddcbaa#",
"#aabcddddddeffffffgghhhhhhhhhhhhhhhhhhhhhhhhggffffffeddddddcbaa#",
"#aaabcdddddefffffffgghhhhhhhhhhhhhhhhhhhhhhggfffffffedddddcbaaa#",
"#aaaabcddddeffffffffgghhhhhhhhhhhhhhhhhhhhggffffffffeddddcbaaaa#",
"#aaaabcddddefffffffffggghhhhhhhhhhhhhhhhgggfffffffffeddddcbaaaa#",
"#aaaaabcdddefffffffffffgghhhhhhhhhhhhhhggfffffffffffedddcbaaaaa#",
"#aaaaaabcddeffffffffffffgggghhhhhhhhggggffffffffffffeddcbaaaaaa#",
"#aaaaaaabcdeeffffffffffffffggggggggggffffffffffffffeedcbaaaaaaa#",
"#aaaaaaaabceeeffffffffffffffffffffffffffffffffffffeeecbaaaaaaaa#",
"#aaaaaaaaabceeeeeeeeeeeeeeeeeeeeeeeeeeeeeeeeeeeeeeeecbaaaaaaaaa#",
"#aaaaaaaaaabccddddddddddddddddddddddddddddddddddddccbaaaaaaaaaa#",
"#aaaaaaaaaaabbcddddddddddddddddddddddddddddddddddcbbaaaaaaaaaaa#",
"#aaaaaaaaaaaaabccddddddddddddddddddddddddddddddccbaaaaaaaaaaaaa#",
"#aaaaaaaaaaaaaabbccddddddddddddddddddddddddddccbbaaaaaaaaaaaaaa#",
"#aaaaaaaaaaaaaaaabbcccddddddddddddddddddddcccbbaaaaaaaaaaaaaaaa#",
"#aaaaaaaaaaaaaaaaaabbbccccddddddddddddccccbbbaaaaaaaaaaaaaaaaaa#",
"#aaaaaaaaaaaaaaaaaaaaabbbbccccccccccccbbbbaaaaaaaaaaaaaaaaaaaaa#",
"################################################################"};
