/* XPM */
static char *dummy[]={
"64 64 11 1",
". c None",
"g c #000000",
"f c #000080",
"# c #010000",
"a c #231100",
"b c #3a1c00",
"d c #7b3d00",
"i c #a04f00",
"c c #b3b300",
"h c #ff0000",
"e c #ffff00",
"................................................................",
"................................................................",
"................................................................",
"................................................................",
"................................................................",
"................................................................",
"................................................................",
"................................................................",
"................................................................",
"................................................................",
"................................................................",
"................................................................",
"................................................................",
"................................................................",
"................................................................",
"................................................................",
"................................................................",
"................................................................",
"................................................................",
"................................................................",
"................................................................",
"................................................................",
"................................................................",
"................................................................",
"................................................................",
"................................................................",
"................................................................",
"................................................................",
"................................................................",
"................................................................",
"................................................................",
"................................................................",
"................................................................",
"................................................................",
"................................................................",
"...........................#####################################",
"..........................#abaaaaaaaaaaaaaaaaaaaaaaaaaaaaaaaaa##",
".........................#aba##########################aaabba#b#",
"........................#aba############################abba#bb#",
".......................#abacc#########ccccc############abba#bdb#",
"......................#abaccc##ccccccccceccccccc######abba#bddb#",
".....................#aba#cccccceccceeecccfcccccc####aaaa#bbbb#.",
"....................#ggccccceccecccccecccccceccccccccc#########.",
"...................#ccccccccccccccccccccccccccccccccccc##.......",
"..................#ceeeeceeeeeceeheeeeeeeeeeeeeeeeeeec#b#.......",
".................#cceeheeeceeeeeceeeceeeeeeceeeefeeec#bb#.......",
"................#ceeeeeeceeeeceeceeeeeeheecceeeeeeec#bdb#.......",
"...............#ccccccccccececccccccccccccccccccccc#bddb#.......",
"..............###########egge######################bdddb#.......",
"..............#bbbbbbbbbebbbbebbbbbbbbbbbbbbbbbbbb#bdddb#.......",
"..............#bddddddddeddddedddddddddddddddddddb#bdidb#.......",
"..............#bddddddddediidedddddddddddddddddddb#bddib#.......",
"..............#bddidddddediddedddiddddidddddddiddb#bddib#.......",
"..............#bddiddddddeideddddiddddidddiiddiddb#bddib#.......",
"..............#bddidddddddeeddddiiddddiddddiddiidb#bddib#.......",
"..............#bddiidddddehhedddiiddddiddddidddidb#bddib#.......",
"..............#bddiiddddddeeddddiiddddiddddidddidb#bddib#.......",
"..............#bddiiddddddiddddddiddddiddddidddidb#bddib#.......",
"..............#bddidddddddiddddddiddddiddddidddidb#bddb#........",
"..............#bddidddddddiddddddiddddiddddidddidb#bdb#.........",
"..............#bddidddddiiiidddddiddddiidddddddidb#bb#..........",
"..............#bdddddddddddddddddddddddddddddddddb#b#...........",
"..............#bbbbbbbbbbbbbbbbbbbbbbbbbbbbbbbbbbb##............",
"..............#####################################............."};
