/* XPM */
static char *dummy[]={
"64 64 196 2",
"#Z c #000000",
"#n c #010000",
"#G c #020000",
"#I c #020101",
"#B c #030303",
"ad c #090909",
"#U c #0a0a0a",
"#6 c #120d0d",
"#1 c #1c1b1b",
"a# c #291313",
"#o c #291414",
"#3 c #291515",
"#t c #2f1717",
"#v c #2f2e2e",
"#K c #321919",
"ah c #331919",
"#O c #333232",
".b c #3a1d1d",
"bb c #3b1e1e",
"#h c #401f1f",
"#A c #402020",
".7 c #402323",
"#. c #403d3d",
"#i c #403f3f",
"aE c #412323",
"#x c #424242",
"ap c #472222",
"am c #472f2f",
"#r c #473030",
".H c #4f3939",
"#y c #4f4747",
"#f c #4f4848",
"af c #4f4f4f",
"aR c #503939",
"#P c #515151",
"ab c #674747",
".f c #6c3636",
"#W c #6e3636",
"b# c #6e3737",
"#4 c #6e4646",
"#9 c #6e5c5c",
"#C c #703838",
"#m c #7a3d3d",
"at c #7c3e3e",
"aI c #808080",
"au c #814040",
".1 c #814141",
".W c #838383",
"#l c #858585",
"ak c #8d4646",
"ar c #8f4747",
".n c #8f6a6a",
".U c #8f7575",
"#X c #8f8e8e",
".P c #906262",
"a3 c #906a6a",
"aM c #916363",
".X c #935555",
".r c #935e5e",
".2 c #938787",
"a0 c #945e5e",
"aJ c #955656",
"aO c #967575",
".j c #967f7f",
".k c #974b4b",
".K c #977676",
"a7 c #977e7e",
"aS c #979797",
"aH c #984b4b",
"a8 c #984c4c",
".A c #987474",
".D c #989898",
"aU c #997474",
"aC c #9a4c4c",
"#k c #9a7979",
"aV c #9c8686",
".v c #9d8787",
"aw c #9e4f4f",
".E c #9e6a6a",
".w c #a05959",
"aW c #a15a5a",
"#N c #a18787",
"#j c #a45252",
"aZ c #a89d9d",
".L c #a95454",
".q c #a99f9f",
"b. c #aa9e9e",
"aP c #ab5656",
"#M c #ab6262",
".e c #ab9e9e",
".T c #ac5b5b",
"aL c #aca7a7",
".O c #ada8a8",
"#Q c #ae5757",
"#D c #ae9e9e",
"#T c #afaeae",
"#8 c #b05858",
".B c #b15a5a",
"#5 c #b1b1b1",
"aB c #b25959",
"aq c #b55a5a",
".o c #ba5d5d",
"a4 c #bb5e5e",
".M c #bd5e5e",
"aj c #bd5f5f",
"#z c #bdbdbd",
"#g c #be5f5f",
".J c #bebebe",
"az c #bf6060",
"#S c #bf6767",
"a2 c #bfb9b9",
".m c #c0baba",
".9 c #c46262",
"#a c #c4c3c3",
"aD c #c4c4c4",
"aT c #c6bebe",
".6 c #c6c6c6",
".F c #c86464",
".z c #c8bfbf",
"aG c #c96464",
"#c c #ca6868",
"ba c #ccc7c7",
"ag c #cccccc",
".a c #cdc8c8",
"#J c #cdcdcd",
"ao c #cf6767",
"#w c #d06868",
"#u c #d0cfcf",
"al c #d0d0d0",
"#q c #d1d1d1",
"aQ c #d2d2d2",
"as c #d36969",
".G c #d3d3d3",
"aa c #d46a6a",
".Q c #d46f6f",
"av c #d56b6b",
"aN c #d56f6f",
"a6 c #d5d2d2",
"#p c #d5d5d5",
".s c #d66b6b",
".i c #d6d3d3",
"ai c #d76b6b",
".u c #dbd7d7",
".I c #dc6e6e",
"#F c #dddddd",
"#7 c #de6f6f",
"a. c #e0dfdf",
"#E c #e0e0e0",
"ax c #e17070",
"#0 c #e27171",
"#L c #e37171",
"#s c #e67373",
"an c #e77474",
"a9 c #e8e7e7",
".d c #e9e8e8",
".V c #ea7575",
".4 c #eae9e9",
".3 c #ebe9e9",
".x c #ec7676",
".Y c #ec7777",
"aY c #ecebeb",
"aX c #ed7676",
"aK c #ed7878",
".p c #edecec",
"#R c #ee7777",
"aA c #ef7777",
".y c #efefef",
"ay c #f0f0f0",
"ac c #f17878",
"#e c #f1f1f1",
"a1 c #f3f3f3",
".S c #f47a7a",
".l c #f4f4f4",
".R c #f57a7a",
"#V c #f57b7b",
"#Y c #f5f5f5",
"ae c #f67b7b",
".N c #f6f6f6",
"#d c #f77b7b",
".# c #f7f7f7",
"#b c #f87c7c",
".t c #f8f8f8",
".8 c #f97d7d",
"a5 c #f9f9f9",
".5 c #fa7d7d",
"aF c #fa7e7e",
".h c #fafafa",
".Z c #fb7e7e",
".C c #fc7e7e",
"#H c #fcfcfc",
"#2 c #fd7f7f",
".c c #fdfdfd",
".0 c #fe7f7f",
"## c #fefefe",
".g c #ff8080",
"Qt c #ffffff",
"QtQtQtQtQtQtQtQtQtQtQtQtQtQtQtQtQtQtQtQtQtQtQtQtQtQtQtQtQtQtQtQtQtQtQtQtQtQtQtQtQtQtQtQtQtQtQtQtQtQtQtQtQtQtQtQtQtQtQtQtQtQtQtQt",
"QtQtQtQtQtQtQtQtQtQtQtQtQtQtQtQtQtQtQtQtQtQtQtQtQtQtQtQtQtQtQtQtQtQtQtQtQtQtQtQtQtQtQtQtQtQtQtQtQtQtQtQtQtQtQtQtQtQtQtQtQtQtQtQt",
"QtQtQtQtQtQtQtQtQtQtQtQtQtQtQtQtQtQtQtQtQtQtQtQtQtQtQtQtQtQtQtQtQtQtQtQtQtQtQtQtQtQtQtQtQtQtQtQtQtQtQtQtQtQtQtQtQtQtQtQtQtQtQtQt",
"QtQtQtQtQtQtQtQtQtQtQtQtQtQtQtQtQtQtQtQtQtQtQtQtQtQtQtQtQtQtQtQtQtQtQtQtQtQtQtQtQtQtQtQtQtQtQtQtQtQtQtQtQtQtQtQtQtQtQtQtQtQtQtQt",
"QtQtQtQtQtQtQtQtQtQtQtQtQtQtQtQtQtQtQtQtQtQtQtQtQtQtQtQtQtQtQtQtQtQtQtQtQtQtQtQtQtQtQtQtQtQtQtQtQtQtQtQtQtQtQtQtQtQtQtQtQtQtQtQt",
"QtQtQtQtQtQtQtQtQtQtQtQtQtQtQtQtQtQtQtQtQtQtQtQtQtQtQtQtQtQtQtQtQtQtQtQtQtQtQtQtQtQtQtQtQtQtQtQtQtQtQtQtQtQtQtQtQtQtQtQtQtQtQtQt",
"QtQtQtQtQtQtQtQtQtQtQtQtQtQtQtQtQtQtQtQtQtQtQtQtQtQtQtQtQtQtQtQtQtQtQtQtQtQtQtQtQtQtQtQtQtQtQtQtQtQtQtQtQtQtQtQtQtQtQtQtQtQtQtQt",
"QtQtQtQtQtQtQtQtQtQtQtQtQtQtQtQtQtQtQtQtQtQtQtQtQtQtQtQtQtQtQtQtQtQtQtQtQtQtQtQtQtQtQtQtQtQtQtQtQtQtQtQtQtQtQtQtQtQtQtQtQtQtQtQt",
"QtQtQtQtQtQtQtQtQtQtQtQtQtQtQtQtQtQtQtQtQtQtQtQtQtQtQtQtQtQtQtQtQtQtQtQtQtQtQtQtQtQtQtQtQtQtQtQtQtQtQtQtQtQtQtQtQtQtQtQtQtQtQtQt",
"QtQtQtQtQtQtQtQtQtQtQtQtQtQtQtQtQtQtQt.#.#.#.a.a.a.a.b.b.b.b.b.b.b.b.b.b.b.b.a.a.a.a.#.#.#QtQtQtQtQtQtQtQtQtQtQtQtQtQtQtQtQtQtQt",
"QtQtQtQtQtQtQtQtQtQtQtQtQtQtQt.c.c.d.d.e.e.e.f.f.f.f.g.g.g.g.g.g.g.g.g.g.g.g.f.f.f.f.e.e.e.d.d.c.cQtQtQtQtQtQtQtQtQtQtQtQtQtQtQt",
"QtQtQtQtQtQtQtQtQtQtQtQtQtQt.h.i.i.j.j.k.k.k.g.g.g.g.g.g.g.g.g.g.g.g.g.g.g.g.g.g.g.g.k.k.k.j.j.i.i.hQtQtQtQtQtQtQtQtQtQtQtQtQtQt",
"QtQtQtQtQtQtQtQtQtQtQtQt.l.l.m.n.n.o.o.g.g.g.g.g.g.g.g.g.g.g.g.g.g.g.g.g.g.g.g.g.g.g.g.g.g.o.o.n.n.m.l.lQtQtQtQtQtQtQtQtQtQtQtQt",
"QtQtQtQtQtQtQtQtQtQt.c.p.q.q.r.s.s.g.g.g.g.g.g.g.g.g.g.g.g.g.g.g.g.g.g.g.g.g.g.g.g.g.g.g.g.g.g.s.s.r.q.q.p.cQtQtQtQtQtQtQtQtQtQt",
"QtQtQtQtQtQtQtQtQt.t.u.v.w.w.x.g.g.g.g.g.g.g.g.g.g.g.g.g.g.g.g.g.g.g.g.g.g.g.g.g.g.g.g.g.g.g.g.g.g.x.w.w.v.u.tQtQtQtQtQtQtQtQtQt",
"QtQtQtQtQtQtQtQt.y.z.A.B.C.C.g.g.g.g.g.g.g.g.g.g.g.g.g.g.g.g.g.g.g.g.g.g.g.g.g.g.g.g.g.g.g.g.g.g.g.g.C.C.B.A.z.yQtQtQtQtQtQtQtQt",
"QtQtQtQtQtQtQtQt.D.E.F.g.g.g.g.g.g.g.g.g.g.g.g.g.g.g.g.g.g.g.g.g.g.g.g.g.g.g.g.g.g.g.g.g.g.g.g.g.g.g.g.g.g.F.E.DQtQtQtQtQtQtQtQt",
"QtQtQtQtQtQtQt.G.H.I.g.g.g.g.g.g.g.g.g.g.g.g.g.g.g.g.g.g.g.g.g.g.g.g.g.g.g.g.g.g.g.g.g.g.g.g.g.g.g.g.g.g.g.g.I.H.GQtQtQtQtQtQtQt",
"QtQtQtQtQtQt.J.K.L.g.g.g.g.g.g.M.M.M.M.M.g.g.g.g.g.g.g.g.g.g.g.g.g.g.g.g.g.g.g.g.g.g.g.g.g.g.g.g.M.M.M.M.M.g.g.L.K.JQtQtQtQtQtQt",
"QtQtQtQt.N.O.P.Q.R.g.g.g.S.T.T.U.U.U.U.U.T.T.S.g.g.g.g.g.g.g.g.g.g.g.g.g.g.g.g.g.g.g.g.g.g.S.T.T.U.U.U.U.U.T.T.V.Q.P.O.NQtQtQtQt",
"QtQtQtQt.W.X.Y.Z.g.g.g.0.1.2.2.3.4.4.4.4.2.2.1.0.g.g.g.g.g.g.g.g.g.g.g.g.g.g.g.g.g.g.g.g.0.1.2.2.3.3.3.3.3.2.2.1.5.Y.X.WQtQtQtQt",
"QtQtQt.6.7.8.0.g.g.g.g.9#..t.t###a#a#a#a.t.t#..9.g.g.g.g.g.g.g.g.g.g.g.g.g.g.g.g.g.g.g#b#c#..t.t##########.t.t#.#c#d.8.7.6QtQtQt",
"QtQt#e#f#g.g.g.g.g.g.g#h.JQtQtQt#i#i#i#iQtQt.J#h.g.g.g.g.g.g.g.g.g.g.g.g.g.g.g.g.g.g.g#j#k.JQtQtQtQtQtQtQtQtQt.J#k#j.g#g#f#eQtQt",
"QtQt#l#m.g.g.g.g.g.g.g#nQtQtQtQt#n#n#n#nQtQtQt#n.g.g.g.g.g.g.g.g.g.g.g.g.g.g.g.g.g.g.g#o#pQtQtQtQtQtQtQtQtQtQtQt#p#o.g.g#m#lQtQt",
"Qt#q#r#s.g.g.g.g.g.g.g#t#uQtQtQt#v#v#v#vQtQt#u#t.g.g.g.g.g.g.g.g.g.g.g.g.g.g.g.g.g.g#w#vQtQtQt#u#u#u#uQtQtQtQtQtQt#v#w.g#s#r#qQt",
"Qt#x.M.g.g.g.g.g.g.g.g.M#y.y.yQt#z#z#z#z.y.y#y.M.g.g.g.g.g.g.g.g.g.g.g.g.g.g.g.g.g.g#A#zQtQtQt#i#i#i#iQtQtQtQtQtQt#z#A.g.g.M#xQt",
"Qt#B.C.g.g.g.g.g.g.g.g.C#C#D#D#E#F#F#F#F#D#D#C.C.g.g.g.g.g.g.g.g.g.g.g.g.g.g.g.g.g.g#G#HQtQtQt#I#I#I#IQtQtQtQtQtQt#H#G.g.g.C#BQt",
"#J#K.g.g.g.g.g.g.g.g.g.g#L#M#M#N#N#N#N#N#M#M#L.g.g.g.g.g.g.g.g.g.g.g.g.g.g.g.g.g.g.g#nQtQtQtQt#O#O#O#OQtQtQtQtQtQtQt#n.g.g.g#K#J",
"#P#Q.g.g.g.g.g.g.g.g.g.g.g#R#R#S#S#S#S#S#R#R.g.g.g.g.g.g.g.g.g.g.g.g.g.g.g.g.g.g.g.g#nQtQtQtQt#T#T#T#TQtQtQtQtQtQtQt#n.g.g.g#Q#P",
"#U#V.g.g.g.g.g.g.g.g.g.g.g.g.g#V#V#V#V#V.g.g.g.g.g.g.g.g.g.g.g.g.g.g.g.g.g.g.g.g.g.g#W#XQtQtQt#Y#Y#Y#YQtQtQtQtQtQt#X#W.g.g.g#V#U",
"#Z.g.g.g.g.g.g.g.g.g.g.g.g.g.g.g.g.g.g.g.g.g.g.g.g.g.g.g.g.g.g.g.g.g.g.g.g.g.g.g.g.g#0#1QtQtQtQtQtQtQtQtQtQtQtQtQt#1#0.g.g.g.g#Z",
"#Z.g.g.g.g.g.g.g.g.g.g.g.g.g.g.g.g.g.g.g.g.g.g.g.g.g.g.g.g.g.g.g.g.g.g.g.g.g.g.g.g.g#2#3#pQtQtQtQtQtQtQtQtQtQtQt#p#3#2.g.g.g.g#Z",
"#Z.g.g.g.g.g.g.g.g.g.g.g.g.g.g.g.g.g.g.g.g.g.g.g.g.g.g.g.g.g.g.g.g.g.g.g.g.g.g.g.g.g.g.I#4#5QtQtQtQtQtQtQtQtQt#5#4.I.g.g.g.g.g#Z",
"#Z.g.g.g.g.g.g.g.g.g.0.g.g.g.g.g.g.g.g.g.g.g.g.g.g.g.g.g.g.g.g.g.g.g.g.g.g.g.g.g.g.g.g.0.S#6.N.N##########.N.N#6.S.0.g.g.g.g.g#Z",
"#Z.g.g.g.g.g.g.g.g.g#7.g.g.g.g.g.g.g.g.g.g.g.g.g.g.g.g.g.g.g.g.g.g.g.g.g.g.g.g.g.g.g.g.g.g#8#9#9a.a.a.a.a.#9#9#8.g.g.g.g.g.g.g#Z",
"#Z.g.g.g.g.g.g.g.g.ga#.g.g.g.g.g.g.g.g.g.g.g.g.g.g.g.g.g.g.g.g.g.g.g.g.g.g.g.g.g.g.g.g.g.g.gaaaaabababababaaaa.g.g.g.g.g.g.g.g#Z",
"#Z.g.g.g.g.g.g.g.g.g#n.g.g.g.g.g.g.g.g.g.g.g.g.g.g.g.g.g.g.g.g.g.g.g.g.g.g.g.g.g.g.g.g.g.g.g.g.gacacacacac.g.g.g.g.g.g.g.g.g.g#Z",
"adae.g.g.g.g.g.g.g.g#n.g.g.g.g.g.g.g.g.g.g.g.g.g.g.g.g.g.g.g.g.g.g.g.g.g.g.g.g.g.g.g.g.g.g.g.g.g.g.g.g.g.g.g.g.g.g.g.g.g.g.gaead",
"af#8.g.g.g.g.g.g.g.g#n.g.g.g.g.g.g.g.g.g.g.g.g.g.g.g.g.g.g.g.g.g.g.g.g.g.g.g.g.g.g.g.g.g.g.g.g.g.g.g.g.g.g.g.g.g.g.g.g.g.g.g#8af",
"agah.g.g.g.g.g.g.g.g#n.g.g.g.g.g.g.g.g.g.g.g.g.g.g.g.g.g.g.g.g.g.g.g.g.g.g.g.g.g.g.g.g.g.g.g.g.g.g.g.g.g.g.g.g.g.g.g.g.g.g.gahag",
"Qt#B.C.g.g.g.g.g.g.g#G.C.g.g.g.g.g.g.g.g.g.g.g.g.g.g.g.g.g.g.g.g.g.g.g.g.g.g.g.g.g.g.C.C.C.C.Caiaiai.g.g.g.g.g.g.g.g.g.g.g.C#BQt",
"Qt#xaj.g.g.g.g.g.g.g#h#g.g.g.g.g.g.g.g.g.g.g.g.g.g.g.g.g.g.g.g.g.g.g.g.g.g.S.S.S.S.S.F.F.F.F.Fakakak.g.g.g.g.g.g.g.g.g.g.gaj#xQt",
"Qtalaman.g.g.g.g.g.gaoapan.g.g.g.g.g.g.g.g.g.g.g.g.g.g.g.g.g.gananananananaqaqaqaqaqarararararasasas.g.g.g.g.g.g.g.g.g.ganamalQt",
"QtQt.Wat.g.g.g.g.g.g.gau#jav.g.g.g.g.g.g.g.g.g.g.g.gavavavavav#j#j#j#j#j#jawawawawawaxaxaxaxax.g.g.g.g.g.g.g.g.g.g.g.g.gat.WQtQt",
"QtQtay#yaz.g.g.g.g.g.gaAaBaCazazazazazazazazazazazazaCaCaCaCaCaBaBaBaBaBaBaAaAaAaAaA.g.g.g.g.g.g.g.g.g.g.g.g.g.g.g.g.gaz#yayQtQt",
"QtQtQtaDaEaF.0.g.g.g.g.g#baGaHaHaHaHaHaHaHaHaHaHaHaHaGaGaGaGaG#b#b#b#b#b#b.g.g.g.g.g.g.g.g.g.g.g.g.g.g.g.g.g.g.g.g.0aFaEaDQtQtQt",
"QtQtQtQtaIaJaK.Z.g.g.g.g.g#2axaxaxaxaxaxaxaxaxaxaxax#2#2#2#2#2.g.g.g.g.g.g.g.g.g.g.g.g.g.g.g.g.g.g.g.g.g.g.g.g.g.ZaKaJaIQtQtQtQt",
"QtQtQtQt#YaLaMaN#V.g.g.g.g.g.g.g.g.g.g.g.g.g.g.g.g.g.g.g.g.g.g.g.g.g.g.g.g.g.g.g.g.g.g.g.g.g.g.g.g.g.g.g.g.g.g#VaNaMaL#YQtQtQtQt",
"QtQtQtQtQtQt#zaOaP.g.g.g.g.g.g.g.g.g.g.g.g.g.g.g.g.g.g.g.g.g.g.g.g.g.g.g.g.g.g.g.g.g.g.g.g.g.g.g.g.g.g.g.g.g.gaPaO#zQtQtQtQtQtQt",
"QtQtQtQtQtQtQtaQaR.I.g.g.g.g.g.g.g.g.g.g.g.g.g.g.g.g.g.g.g.g.g.g.g.g.g.g.g.g.g.g.g.g.g.g.g.g.g.g.g.g.g.g.g.g.IaRaQQtQtQtQtQtQtQt",
"QtQtQtQtQtQtQtQtaS.EaG.g.g.g.g.g.g.g.g.g.g.g.g.g.g.g.g.g.g.g.g.g.g.g.g.g.g.g.g.g.g.g.g.g.g.g.g.g.g.g.g.g.gaG.EaSQtQtQtQtQtQtQtQt",
"QtQtQtQtQtQtQtQt.yaTaU.B#2#2.g.g.g.g.g.g.g.g.g.g.g.g.g.g.g.g.g.g.g.g.g.g.g.g.g.g.g.g.g.g.g.g.g.g.g.g#2#2.BaUaT.yQtQtQtQtQtQtQtQt",
"QtQtQtQtQtQtQtQtQt.#.uaVaWaWaX.g.g.g.g.g.g.g.g.g.g.g.g.g.g.g.g.g.g.g.g.g.g.g.g.g.g.g.g.g.g.g.g.g.gaXaWaWaV.u.#QtQtQtQtQtQtQtQtQt",
"QtQtQtQtQtQtQtQtQtQt.caYaZaZa0aiai.g.g.g.g.g.g.g.g.g.g.g.g.g.g.g.g.g.g.g.g.g.g.g.g.g.g.g.g.g.gaiaia0aZaZaY.cQtQtQtQtQtQtQtQtQtQt",
"QtQtQtQtQtQtQtQtQtQtQtQta1a1a2a3a3a4a4.g.g.g.g.g.g.g.g.g.g.g.g.g.g.g.g.g.g.g.g.g.g.g.g.g.ga4a4a3a3a2a1a1QtQtQtQtQtQtQtQtQtQtQtQt",
"QtQtQtQtQtQtQtQtQtQtQtQtQtQta5a6a6a7a7a8a8a8.g.g.g.g.g.g.g.g.g.g.g.g.g.g.g.g.g.g.g.ga8a8a8a7a7a6a6a5QtQtQtQtQtQtQtQtQtQtQtQtQtQt",
"QtQtQtQtQtQtQtQtQtQtQtQtQtQtQt.c.ca9a9b.b.b.b#b#b#b#.g.g.g.g.g.g.g.g.g.g.g.gb#b#b#b#b.b.b.a9a9.c.cQtQtQtQtQtQtQtQtQtQtQtQtQtQtQt",
"QtQtQtQtQtQtQtQtQtQtQtQtQtQtQtQtQtQtQt.#.#.#bababababbbbbbbbbbbbbbbbbbbbbbbbbabababa.#.#.#QtQtQtQtQtQtQtQtQtQtQtQtQtQtQtQtQtQtQt",
"QtQtQtQtQtQtQtQtQtQtQtQtQtQtQtQtQtQtQtQtQtQtQtQtQtQtQtQtQtQtQtQtQtQtQtQtQtQtQtQtQtQtQtQtQtQtQtQtQtQtQtQtQtQtQtQtQtQtQtQtQtQtQtQt",
"QtQtQtQtQtQtQtQtQtQtQtQtQtQtQtQtQtQtQtQtQtQtQtQtQtQtQtQtQtQtQtQtQtQtQtQtQtQtQtQtQtQtQtQtQtQtQtQtQtQtQtQtQtQtQtQtQtQtQtQtQtQtQtQt",
"QtQtQtQtQtQtQtQtQtQtQtQtQtQtQtQtQtQtQtQtQtQtQtQtQtQtQtQtQtQtQtQtQtQtQtQtQtQtQtQtQtQtQtQtQtQtQtQtQtQtQtQtQtQtQtQtQtQtQtQtQtQtQtQt",
"QtQtQtQtQtQtQtQtQtQtQtQtQtQtQtQtQtQtQtQtQtQtQtQtQtQtQtQtQtQtQtQtQtQtQtQtQtQtQtQtQtQtQtQtQtQtQtQtQtQtQtQtQtQtQtQtQtQtQtQtQtQtQtQt",
"QtQtQtQtQtQtQtQtQtQtQtQtQtQtQtQtQtQtQtQtQtQtQtQtQtQtQtQtQtQtQtQtQtQtQtQtQtQtQtQtQtQtQtQtQtQtQtQtQtQtQtQtQtQtQtQtQtQtQtQtQtQtQtQt",
"QtQtQtQtQtQtQtQtQtQtQtQtQtQtQtQtQtQtQtQtQtQtQtQtQtQtQtQtQtQtQtQtQtQtQtQtQtQtQtQtQtQtQtQtQtQtQtQtQtQtQtQtQtQtQtQtQtQtQtQtQtQtQtQt"};
