/* XPM */
static char *dummy[]={
"64 64 5 1",
". c None",
"b c #010000",
"# c #ff0000",
"a c #ff8080",
"c c #ffffff",
"................................................................",
"................................................................",
"................................................................",
"................................................................",
"................................................................",
"................................................................",
"................................................................",
"................................................................",
"................................................................",
"................................................................",
"................................................................",
"................................................................",
"................................................................",
"................................................................",
"................................................................",
"................................................................",
"................................................................",
"................................................................",
"................................................................",
"................................................................",
"................................................................",
"................................................................",
"................................................................",
"................................................................",
"................................................................",
"................................................................",
"................................................................",
"................................................................",
"................................................................",
"................................................................",
"................................................................",
"................................................................",
"................................................................",
"................................................................",
"................................................................",
"................................................................",
"................................................................",
"................................................................",
"................................................................",
"................................................................",
"................................................................",
".....###........................................................",
".....#######....................................................",
".....###########................................................",
"......############..............................................",
".......##############...........................................",
".........##############.........................................",
".......#################...aa.aaaaa.............................",
".......#a#################a.aaaaaaaaaaa..#......................",
"......##a###a###############aaaaaaaaaaaa.#.......#..............",
"......#aaaaaaa################aaaaaaaaaaaa#....######...........",
".....#aaaaaaaaaa##################aaaaaaaaa##.##aaaa##..........",
".....#aaaaaaaaaa#####################aaaaaaa###aaaaaa#..........",
".....#aaaaaaaaaaa#######################aaaaaaaaaaaaa##.........",
"..aaa#abbbbbbaaaa############################aaaaaaaaa#.........",
"..aaa#bccccccbaaa##############################aaaaaa.#.........",
".aaaa#ccccccccba################################aaaaa..#........",
".aa#a#ccccccccb###aaaaaaaaaaaaaaaaaaaaaaaaaaaaa#####aa.#........",
".a####cccbbcccbaa#aaaaaa#aaaaaaa##aaaaaaaaaaaaaaaaaaaaa##.......",
"..#a#bcccbbcccba##aaaaaa###aaaaaaa####aaa#aaaaaaaaaaaaaa#aa.....",
"..#a#bccccccccba##aaaaaaaaa##aaaaaaa#aaa###aaaaaaaaaaaaaa#aa....",
"...#..bccccccbaaa#aaaaaaa#####aaaaaaaaaa#aa#aaaaaaaa#aaaa#a.....",
"...#...bbbbbbaaa##aaaaaaa##aaa#aaaaaaaaa#aa###aaa####aaa..#.....",
"...#............#.aaaaaa#aaaaa###aaaaaaaa#aaa#####........#....."};
