/* XPM */
static char *dummy[]={
"64 64 107 2",
".t c #000000",
".F c #010000",
"#f c #0c0505",
".T c #0c0606",
".R c #0c0b0b",
".P c #0c0c0c",
".a c #231111",
"#O c #231212",
"#g c #241111",
".n c #241414",
".A c #241616",
".D c #241f1f",
"#E c #282828",
".k c #292929",
"#u c #2c2c2c",
".y c #2d1616",
".w c #2d2d2d",
"#i c #2f1717",
".3 c #353434",
".4 c #381b1b",
"#. c #391c1c",
"#a c #393838",
".U c #3b1d1d",
".q c #432121",
"#B c #442222",
".c c #462323",
"#N c #472424",
"#G c #4c4c4c",
".i c #4d4d4d",
"#w c #505050",
".u c #515151",
"#l c #532929",
"#j c #535353",
".N c #545454",
".6 c #5c2d2d",
".9 c #5d5c5c",
".W c #5f2f2f",
".H c #633131",
".J c #636363",
"#p c #643232",
".s c #673333",
"#z c #683434",
".f c #6a3535",
"#L c #6b3636",
"#I c #707070",
".g c #717171",
"#m c #773b3b",
".L c #783c3c",
"#c c #7c7c7c",
".Y c #7d7d7d",
".Z c #824141",
".0 c #834141",
"#d c #834242",
".1 c #838282",
".M c #878787",
"#n c #884444",
".h c #8e4747",
"#J c #8f4848",
"#K c #949494",
".e c #959595",
"#y c #979797",
".r c #989898",
"#q c #9b4d4d",
"#o c #9b9b9b",
".I c #9c4e4e",
".K c #9c9b9b",
".G c #9c9c9c",
".X c #a0a0a0",
".8 c #a25151",
".7 c #a3a3a3",
".O c #ab5555",
"#k c #ac5656",
".v c #ae5757",
"#x c #af5858",
".j c #b25959",
"#H c #b35a5a",
"#M c #b8b8b8",
".b c #b9b9b9",
"#A c #bbbbbb",
".p c #bcbcbc",
"#r c #bf5f5f",
".V c #c4c4c4",
"## c #c66363",
".5 c #c7c7c7",
".2 c #ca6565",
"#h c #d06868",
".x c #d26969",
"#v c #d36a6a",
".l c #d66b6b",
"#F c #d76c6c",
".# c #dcdcdc",
"#C c #dfdfdf",
".m c #e0e0e0",
".C c #e37272",
"#s c #e3e3e3",
".z c #e4e4e4",
"#b c #ea7575",
".Q c #f37979",
"#e c #f37a7a",
".S c #f3f3f3",
".B c #f67b7b",
".E c #f6f6f6",
"#t c #f77c7c",
".o c #fa7d7d",
"#D c #fb7e7e",
".d c #ff8080",
"Qt c #ffffff",
"QtQtQtQtQtQtQtQtQtQtQtQtQtQtQtQtQtQtQtQtQtQtQtQtQtQtQtQtQtQtQtQtQtQtQtQtQtQtQtQtQtQtQtQtQtQtQtQtQtQtQtQtQtQtQtQtQtQtQtQtQtQtQtQt",
"QtQtQtQtQtQtQtQtQtQtQtQtQtQtQtQtQtQtQtQtQtQtQtQtQtQtQtQtQtQtQtQtQtQtQtQtQtQtQtQtQtQtQtQtQtQtQtQtQtQtQtQtQtQtQtQtQtQtQtQtQtQtQtQt",
"QtQtQtQtQtQtQtQtQtQtQtQtQtQtQtQtQtQtQtQtQtQtQtQtQtQtQtQtQtQtQtQtQtQtQtQtQtQtQtQtQtQtQtQtQtQtQtQtQtQtQtQtQtQtQtQtQtQtQtQtQtQtQtQt",
"QtQtQtQtQtQtQtQtQtQtQtQtQtQtQtQtQtQtQtQtQtQtQtQtQtQtQtQtQtQtQtQtQtQtQtQtQtQtQtQtQtQtQtQtQtQtQtQtQtQtQtQtQtQtQtQtQtQtQtQtQtQtQtQt",
"QtQtQtQtQtQtQtQtQtQtQtQtQtQtQtQtQtQtQtQtQtQtQtQtQtQtQtQtQtQtQtQtQtQtQtQtQtQtQtQtQtQtQtQtQtQtQtQtQtQtQtQtQtQtQtQtQtQtQtQtQtQtQtQt",
"QtQtQtQtQtQtQtQtQtQtQtQtQtQtQtQtQtQtQtQtQtQtQtQtQtQtQtQtQtQtQtQtQtQtQtQtQtQtQtQtQtQtQtQtQtQtQtQtQtQtQtQtQtQtQtQtQtQtQtQtQtQtQtQt",
"QtQtQtQtQtQtQtQtQtQtQtQtQtQtQtQtQtQtQtQtQtQtQtQtQtQtQtQtQtQtQtQtQtQtQtQtQtQtQtQtQtQtQtQtQtQtQtQtQtQtQtQtQtQtQtQtQtQtQtQtQtQtQtQt",
"QtQtQtQtQtQtQtQtQtQtQtQtQtQtQtQtQtQtQtQtQtQtQtQtQtQtQtQtQtQtQtQtQtQtQtQtQtQtQtQtQtQtQtQtQtQtQtQtQtQtQtQtQtQtQtQtQtQtQtQtQtQtQtQt",
"QtQtQtQtQtQtQtQtQtQtQtQtQtQtQtQtQtQtQtQtQtQtQtQtQtQtQtQtQtQtQtQtQtQtQtQtQtQtQtQtQtQtQtQtQtQtQtQtQtQtQtQtQtQtQtQtQtQtQtQtQtQtQtQt",
"QtQtQtQtQtQtQtQtQtQtQtQtQtQtQtQtQtQtQtQtQtQt.#.#.#.#.a.a.a.a.a.a.a.a.a.a.a.a.#.#.#.#QtQtQtQtQtQtQtQtQtQtQtQtQtQtQtQtQtQtQtQtQtQt",
"QtQtQtQtQtQtQtQtQtQtQtQtQtQtQtQtQtQtQt.b.b.b.c.c.c.c.d.d.d.d.d.d.d.d.d.d.d.d.c.c.c.c.b.b.bQtQtQtQtQtQtQtQtQtQtQtQtQtQtQtQtQtQtQt",
"QtQtQtQtQtQtQtQtQtQtQtQtQtQtQtQtQt.e.e.f.f.f.d.d.d.d.d.d.d.d.d.d.d.d.d.d.d.d.d.d.d.d.f.f.f.e.eQtQtQtQtQtQtQtQtQtQtQtQtQtQtQtQtQt",
"QtQtQtQtQtQtQtQtQtQtQtQtQtQtQt.g.g.h.h.d.d.d.d.d.d.d.d.d.d.d.d.d.d.d.d.d.d.d.d.d.d.d.d.d.d.h.h.g.gQtQtQtQtQtQtQtQtQtQtQtQtQtQtQt",
"QtQtQtQtQtQtQtQtQtQtQtQtQtQt.i.j.j.d.d.d.d.d.d.d.d.d.d.d.d.d.d.d.d.d.d.d.d.d.d.d.d.d.d.d.d.d.d.j.j.iQtQtQtQtQtQtQtQtQtQtQtQtQtQt",
"QtQtQtQtQtQtQtQtQtQtQtQt.k.k.l.d.d.d.d.d.d.d.d.d.d.d.d.d.d.d.d.d.d.d.d.d.d.d.d.d.d.d.d.d.d.d.d.d.d.l.k.kQtQtQtQtQtQtQtQtQtQtQtQt",
"QtQtQtQtQtQtQtQtQtQt.m.n.o.o.d.d.d.d.d.d.d.d.d.d.d.d.d.d.d.d.d.d.d.d.d.d.d.d.d.d.d.d.d.d.d.d.d.d.d.d.o.o.n.mQtQtQtQtQtQtQtQtQtQt",
"QtQtQtQtQtQtQtQtQt.p.q.d.d.d.d.d.d.d.d.d.d.d.d.d.d.d.d.d.d.d.d.d.d.d.d.d.d.d.d.d.d.d.d.d.d.d.d.d.d.d.d.d.d.q.pQtQtQtQtQtQtQtQtQt",
"QtQtQtQtQtQtQtQt.r.s.d.d.d.d.d.d.d.d.d.d.d.d.d.d.d.d.d.d.d.d.d.d.d.d.d.d.d.d.d.d.d.d.d.d.d.d.d.d.d.d.d.d.d.d.s.rQtQtQtQtQtQtQtQt",
"QtQtQtQtQtQtQtQt.t.d.d.d.d.d.d.d.d.d.d.d.d.d.d.d.d.d.d.d.d.d.d.d.d.d.d.d.d.d.d.d.d.d.d.d.d.d.d.d.d.d.d.d.d.d.d.tQtQtQtQtQtQtQtQt",
"QtQtQtQtQtQtQt.u.v.d.d.d.d.d.d.d.d.d.d.d.d.d.d.d.d.d.d.d.d.d.d.d.d.d.d.d.d.d.d.d.d.d.d.d.d.d.d.d.d.d.d.d.d.d.d.v.uQtQtQtQtQtQtQt",
"QtQtQtQtQtQt.w.x.d.d.d.d.d.d.d.y.y.y.y.y.d.d.d.d.d.d.d.d.d.d.d.d.d.d.d.d.d.d.d.d.d.d.d.d.d.d.d.d.y.y.y.y.y.d.d.d.x.wQtQtQtQtQtQt",
"QtQtQtQt.z.A.B.d.d.d.d.d.C.D.D.E.E.E.E.E.D.D.C.d.d.d.d.d.d.d.d.d.d.d.d.d.d.d.d.d.d.d.d.d.d.C.D.D.E.E.E.E.E.D.D.C.d.B.A.zQtQtQtQt",
"QtQtQtQt.t.d.d.d.d.d.d.d.FQtQtQtQtQtQtQtQtQt.F.d.d.d.d.d.d.d.d.d.d.d.d.d.d.d.d.d.d.d.d.d.d.FQtQtQtQtQtQtQtQtQt.F.d.d.d.tQtQtQtQt",
"QtQtQt.G.H.d.d.d.d.d.d.I.JQtQtQt.K.K.K.KQtQt.J.I.d.d.d.d.d.d.d.d.d.d.d.d.d.d.d.d.d.d.d.d.I.JQtQtQtQtQtQtQtQtQt.J.I.d.d.H.GQtQtQt",
"QtQtQt.t.d.d.d.d.d.d.d.FQtQtQtQt.F.F.F.FQtQtQt.F.d.d.d.d.d.d.d.d.d.d.d.d.d.d.d.d.d.d.d.L.MQtQtQtQtQtQtQtQtQtQtQt.M.L.d.d.tQtQtQt",
"QtQt.N.O.d.d.d.d.d.d.d.FQtQtQtQt.F.F.F.FQtQtQt.F.d.d.d.d.d.d.d.d.d.d.d.d.d.d.d.d.d.d.d.FQtQtQtQtQtQtQtQtQtQtQtQtQt.F.d.d.O.NQtQt",
"QtQt.t.d.d.d.d.d.d.d.d.FQtQtQtQt.F.F.F.FQtQtQt.F.d.d.d.d.d.d.d.d.d.d.d.d.d.d.d.d.d.d.d.FQtQtQtQtQtQtQtQtQtQtQtQtQt.F.d.d.d.tQtQt",
"Qt.P.Q.d.d.d.d.d.d.d.d.Q.RQtQtQt.S.S.S.SQtQt.R.Q.d.d.d.d.d.d.d.d.d.d.d.d.d.d.d.d.d.d.T.SQtQtQt.R.R.R.RQtQtQtQtQtQt.S.T.d.d.Q.PQt",
"Qt.t.d.d.d.d.d.d.d.d.d.d.U.V.VQtQtQtQtQt.V.V.U.d.d.d.d.d.d.d.d.d.d.d.d.d.d.d.d.d.d.d.FQtQtQtQt.F.F.F.FQtQtQtQtQtQtQt.F.d.d.d.tQt",
"Qt.t.d.d.d.d.d.d.d.d.d.d.d.W.W.X.X.X.X.X.W.W.d.d.d.d.d.d.d.d.d.d.d.d.d.d.d.d.d.d.d.d.FQtQtQtQt.F.F.F.FQtQtQtQtQtQtQt.F.d.d.d.tQt",
".Y.Z.d.d.d.d.d.d.d.d.d.d.d.d.d.0.0.0.0.0.d.d.d.d.d.d.d.d.d.d.d.d.d.d.d.d.d.d.d.d.d.d.FQtQtQtQt.1.1.1.1QtQtQtQtQtQtQt.F.d.d.d.Z.Y",
".t.d.d.d.d.d.d.d.d.d.d.d.d.d.d.d.d.d.d.d.d.d.d.d.d.d.d.d.d.d.d.d.d.d.d.d.d.d.d.d.d.d.FQtQtQtQtQtQtQtQtQtQtQtQtQtQtQt.F.d.d.d.d.t",
".t.d.d.d.d.d.d.d.d.d.d.d.d.d.d.d.d.d.d.d.d.d.d.d.d.d.d.d.d.d.d.d.d.d.d.d.d.d.d.d.d.d.2.3QtQtQtQtQtQtQtQtQtQtQtQtQt.3.2.d.d.d.d.t",
".t.d.d.d.d.d.d.d.d.d.d.d.d.d.d.d.d.d.d.d.d.d.d.d.d.d.d.d.d.d.d.d.d.d.d.d.d.d.d.d.d.d.d.FQtQtQtQtQtQtQtQtQtQtQtQtQt.F.d.d.d.d.d.t",
".t.d.d.d.d.d.d.d.d.d.d.d.d.d.d.d.d.d.d.d.d.d.d.d.d.d.d.d.d.d.d.d.d.d.d.d.d.d.d.d.d.d.d.4.5QtQtQtQtQtQtQtQtQtQtQt.5.4.d.d.d.d.d.t",
".t.d.d.d.d.d.d.d.d.d.d.d.d.d.d.d.d.d.d.d.d.d.d.d.d.d.d.d.d.d.d.d.d.d.d.d.d.d.d.d.d.d.d.d.6.7QtQtQtQtQtQtQtQtQt.7.6.d.d.d.d.d.d.t",
".t.d.d.d.d.d.d.d.d.d.d.d.d.d.d.d.d.d.d.d.d.d.d.d.d.d.d.d.d.d.d.d.d.d.d.d.d.d.d.d.d.d.d.d.d.FQtQtQtQtQtQtQtQtQt.F.d.d.d.d.d.d.d.t",
".t.d.d.d.d.d.d.d.d.d.d.d.d.d.d.d.d.d.d.d.d.d.d.d.d.d.d.d.d.d.d.d.d.d.d.d.d.d.d.d.d.d.d.d.d.8.9.9QtQtQtQtQt.9.9.8.d.d.d.d.d.d.d.t",
".t.d.d.d.d.d.d.d.d.d#..d.d.d.d.d.d.d.d.d.d.d.d.d.d.d.d.d.d.d.d.d.d.d.d.d.d.d.d.d.d.d.d.d.d.d#####a#a#a#a#a####.d.d.d.d.d.d.d.d.t",
".t.d.d.d.d.d.d.d.d.d.F.d.d.d.d.d.d.d.d.d.d.d.d.d.d.d.d.d.d.d.d.d.d.d.d.d.d.d.d.d.d.d.d.d.d.d.d.d#b#b#b#b#b.d.d.d.d.d.d.d.d.d.d.t",
".t.d.d.d.d.d.d.d.d.d.F.d.d.d.d.d.d.d.d.d.d.d.d.d.d.d.d.d.d.d.d.d.d.d.d.d.d.d.d.d.d.d.d.d.d.d.d.d.d.d.d.d.d.d.d.d.d.d.d.d.d.d.d.t",
".t.d.d.d.d.d.d.d.d.d.F.d.d.d.d.d.d.d.d.d.d.d.d.d.d.d.d.d.d.d.d.d.d.d.d.d.d.d.d.d.d.d.d.d.d.d.d.d.d.d.d.d.d.d.d.d.d.d.d.d.d.d.d.t",
"#c#d.d.d.d.d.d.d.d.d.F.d.d.d.d.d.d.d.d.d.d.d.d.d.d.d.d.d.d.d.d.d.d.d.d.d.d.d.d.d.d.d.d.d.d.d.d.d.d.d.d.d.d.d.d.d.d.d.d.d.d.d#d#c",
"Qt.t.d.d.d.d.d.d.d.d.F.d.d.d.d.d.d.d.d.d.d.d.d.d.d.d.d.d.d.d.d.d.d.d.d.d.d.d.d.d.d.d.d.d.d.d.d.d.d.d.d.d.d.d.d.d.d.d.d.d.d.d.tQt",
"Qt.t.d.d.d.d.d.d.d.d.F.d.d.d.d.d.d.d.d.d.d.d.d.d.d.d.d.d.d.d.d.d.d.d.d.d.d.d.d.d.d.d.d.d.d.d.d.d.d.d.d.d.d.d.d.d.d.d.d.d.d.d.tQt",
"Qt.P#e.d.d.d.d.d.d.d#f#e.d.d.d.d.d.d.d.d.d.d.d.d.d.d.d.d.d.d.d.d.d.d.d.d.d.d.d.d.d.d#e#e#e#e#e#g#g#g.d.d.d.d.d.d.d.d.d.d.d#e.PQt",
"QtQt.t.d.d.d.d.d.d.d.d.F.d.d.d.d.d.d.d.d.d.d.d.d.d.d.d.d.d.d.d.d.d.d.d.d.d#h#h#h#h#h#i#i#i#i#i.d.d.d.d.d.d.d.d.d.d.d.d.d.d.tQtQt",
"QtQt#j#k.d.d.d.d.d.d.d#l#k.d.d.d.d.d.d.d.d.d.d.d.d.d.d.d.d.d.d#k#k#k#k#k#k#l#l#l#l#l.d.d.d.d.d.d.d.d.d.d.d.d.d.d.d.d.d.d#k#jQtQt",
"QtQtQt.t.d.d.d.d.d.d.d.d#m#n.d.d.d.d.d.d.d.d.d.d.d.d#n#n#n#n#n#m#m#m#m#m#m.d.d.d.d.d.d.d.d.d.d.d.d.d.d.d.d.d.d.d.d.d.d.d.tQtQtQt",
"QtQtQt#o#p.d.d.d.d.d.d.d.d#q#p#p#p#p#p#p#p#p#p#p#p#p#q#q#q#q#q.d.d.d.d.d.d.d.d.d.d.d.d.d.d.d.d.d.d.d.d.d.d.d.d.d.d.d.d#p#oQtQtQt",
"QtQtQtQt.t.d.d.d.d.d.d.d.d.d#r#r#r#r#r#r#r#r#r#r#r#r.d.d.d.d.d.d.d.d.d.d.d.d.d.d.d.d.d.d.d.d.d.d.d.d.d.d.d.d.d.d.d.d.d.tQtQtQtQt",
"QtQtQtQt#s.A#t.d.d.d.d.d.d.d.d.d.d.d.d.d.d.d.d.d.d.d.d.d.d.d.d.d.d.d.d.d.d.d.d.d.d.d.d.d.d.d.d.d.d.d.d.d.d.d.d.d.d#t.A#sQtQtQtQt",
"QtQtQtQtQtQt#u#v.d.d.d.d.d.d.d.d.d.d.d.d.d.d.d.d.d.d.d.d.d.d.d.d.d.d.d.d.d.d.d.d.d.d.d.d.d.d.d.d.d.d.d.d.d.d.d.d#v#uQtQtQtQtQtQt",
"QtQtQtQtQtQtQt#w#x.d.d.d.d.d.d.d.d.d.d.d.d.d.d.d.d.d.d.d.d.d.d.d.d.d.d.d.d.d.d.d.d.d.d.d.d.d.d.d.d.d.d.d.d.d.d#x#wQtQtQtQtQtQtQt",
"QtQtQtQtQtQtQtQt.t.d.d.d.d.d.d.d.d.d.d.d.d.d.d.d.d.d.d.d.d.d.d.d.d.d.d.d.d.d.d.d.d.d.d.d.d.d.d.d.d.d.d.d.d.d.d.tQtQtQtQtQtQtQtQt",
"QtQtQtQtQtQtQtQt#y#z.d.d.d.d.d.d.d.d.d.d.d.d.d.d.d.d.d.d.d.d.d.d.d.d.d.d.d.d.d.d.d.d.d.d.d.d.d.d.d.d.d.d.d.d#z#yQtQtQtQtQtQtQtQt",
"QtQtQtQtQtQtQtQtQt#A#B.d.d.d.d.d.d.d.d.d.d.d.d.d.d.d.d.d.d.d.d.d.d.d.d.d.d.d.d.d.d.d.d.d.d.d.d.d.d.d.d.d.d#B#AQtQtQtQtQtQtQtQtQt",
"QtQtQtQtQtQtQtQtQtQt#C.n#D#D.d.d.d.d.d.d.d.d.d.d.d.d.d.d.d.d.d.d.d.d.d.d.d.d.d.d.d.d.d.d.d.d.d.d.d.d#D#D.n#CQtQtQtQtQtQtQtQtQtQt",
"QtQtQtQtQtQtQtQtQtQtQtQt#E#E#F.d.d.d.d.d.d.d.d.d.d.d.d.d.d.d.d.d.d.d.d.d.d.d.d.d.d.d.d.d.d.d.d.d.d#F#E#EQtQtQtQtQtQtQtQtQtQtQtQt",
"QtQtQtQtQtQtQtQtQtQtQtQtQtQt#G#H#H.d.d.d.d.d.d.d.d.d.d.d.d.d.d.d.d.d.d.d.d.d.d.d.d.d.d.d.d.d.d#H#H#GQtQtQtQtQtQtQtQtQtQtQtQtQtQt",
"QtQtQtQtQtQtQtQtQtQtQtQtQtQtQt#I#I#J#J.d.d.d.d.d.d.d.d.d.d.d.d.d.d.d.d.d.d.d.d.d.d.d.d.d.d#J#J#I#IQtQtQtQtQtQtQtQtQtQtQtQtQtQtQt",
"QtQtQtQtQtQtQtQtQtQtQtQtQtQtQtQtQt#K#K#L#L#L.d.d.d.d.d.d.d.d.d.d.d.d.d.d.d.d.d.d.d.d#L#L#L#K#KQtQtQtQtQtQtQtQtQtQtQtQtQtQtQtQtQt",
"QtQtQtQtQtQtQtQtQtQtQtQtQtQtQtQtQtQtQt#M#M#M#N#N#N#N.d.d.d.d.d.d.d.d.d.d.d.d#N#N#N#N#M#M#MQtQtQtQtQtQtQtQtQtQtQtQtQtQtQtQtQtQtQt",
"QtQtQtQtQtQtQtQtQtQtQtQtQtQtQtQtQtQtQtQtQtQt.#.#.#.##O#O#O#O#O#O#O#O#O#O#O#O.#.#.#.#QtQtQtQtQtQtQtQtQtQtQtQtQtQtQtQtQtQtQtQtQtQt"};
