/* XPM */
static char *dummy[]={
"64 64 5 1",
". c None",
"b c #010000",
"# c #ff0000",
"a c #ff8080",
"c c #ffffff",
"................................................................",
"................................................................",
"................................................................",
"................................................................",
"................................................................",
"................................................................",
"................................................................",
"................................................................",
"................................................................",
"................................................................",
"................................................................",
"................................................................",
"................................................................",
"................................................................",
"................................................................",
"................................................................",
"................................................................",
"................................................................",
"................................................................",
"................................................................",
"................................................................",
"................................................................",
"................................................................",
"................................................................",
"................................................................",
"................................................................",
"................................................................",
"................................................................",
"................................................................",
"................................................................",
"................................................................",
"................................................................",
"................................................................",
"................................................................",
"................................................................",
"................................................................",
"................................................................",
"................................................................",
"................................................................",
"................................................................",
"................................................................",
"................................................................",
"................................................................",
"................................................................",
".................#..............................................",
"...............######...........................................",
".........#########aaa#aaa.......................................",
".......####aaaaaaaaaaaaaaaaaa.aaaaa.............................",
".......#aaaa##aaaaaaaaaaaaaaaaaaaaaaaaa..#......................",
"......##a###a##aaaaaaaaaaaaaaaaaa#aaaaaa.#.......#..............",
"......#aaaaaaa###aaaa#########aaaaaaaaaaaa#....######...........",
".....#aaaaaaaaaa##################aaaaaaaaa##.##aaaa##..........",
".....#aaaa#aaaaa#####################aaaaaaa###aaaaaa#..........",
".....#aaaa#aaaaaa######################aaaaaaa#aaaaaa##.........",
"..aaa#abbb#bbaaaa####a##########aaa#a#aaaaaaaaaaaaaaaa#.........",
"..aaa#bccc##cbaaa##aaa#aaaaaaaaa#aaa#aaaaaaa#aaaaaaaa.#.........",
".aaaa#cccc##ccba###aaaaaaaaaaaaaaaaaaaaaaaaaaaaaaaaaa..#........",
".aa#a#ccccccccb###aaaaaaaaaaaaaaaaaaaaaaaaaaaaa#aaaaaa.#........",
".a####cccbbcccbaa#aaaaaa#aaaaaaa##aaaaaaaaaaaaa#aaaaaaa####.....",
"..###bcccbbcccba##aaaaaa###aaaaaaa##a#aaa#aaaaaaaaa#aaaa####....",
"..###bccccccccba##aaaaaaaaa##aaaaaa##aaa###aaaaaaaa##aaaa###....",
".######ccccccbaaa#aaaaa#a#######aaa##aaa####aaaaaa####aaa#####..",
"#######bbb###aaa##a##a##########a#####aa######aaa##############.",
"################################################################"};
