/* XPM */
static char *dummy[]={
"64 64 197 2",
"#0 c #000000",
"#O c #010000",
"#W c #030303",
"#G c #0d0505",
"#I c #0f0e0e",
"#A c #100f0f",
"#m c #110808",
"#o c #111010",
"#q c #2b1d1d",
"ae c #2d2d2d",
"#Q c #2f2f2f",
"#T c #361a1a",
"#Y c #3d3c3c",
"#e c #412020",
"#g c #414040",
"ab c #442020",
"#2 c #442323",
"#K c #522929",
"#P c #535252",
"ah c #542929",
".5 c #543e3e",
"aJ c #554040",
".1 c #554141",
"aB c #5f5050",
"#c c #5f5151",
"aU c #604c4c",
".G c #604d4d",
".c c #663333",
"bc c #673434",
"au c #6b3434",
"ar c #6d6464",
"#C c #6e3d3d",
"#k c #6e6666",
"a. c #723a3a",
"#7 c #737171",
"al c #7a3c3c",
"#y c #7a3d3d",
"#z c #7a7979",
"aj c #7c7c7c",
"#s c #7d7d7d",
"#u c #824040",
"#x c #828282",
"ad c #836262",
"#v c #837e7e",
"am c #8d4646",
"#t c #8d4b4b",
"#h c #994c4c",
".Y c #a06f6f",
"#l c #a15050",
"#6 c #a15a5a",
"aN c #a18080",
".S c #a18282",
".g c #a27979",
"as c #a35151",
".r c #a36a6a",
"a0 c #a37676",
"a# c #a39898",
".w c #a47777",
"aS c #a57373",
"aF c #a65252",
"ax c #a65353",
".L c #a67474",
"#i c #a68484",
".l c #a68c8c",
"a9 c #a78c8c",
"#N c #a87e7e",
"ap c #a95454",
"ag c #ababab",
".h c #ad5757",
"#J c #adadad",
"aM c #ae5656",
"ba c #af5757",
"b. c #af6868",
".m c #af6969",
"aX c #af8e8e",
"a4 c #af9d9d",
".q c #af9f9f",
"ao c #b05858",
".A c #b08f8f",
".P c #b16363",
"aR c #b2a7a7",
".B c #b36b6b",
".K c #b3a7a7",
"aE c #b55a5a",
"aY c #b56b6b",
"bb c #b7a6a6",
".b c #b7a7a7",
".Q c #b85c5c",
"#D c #b9aaaa",
".Z c #b9abab",
".M c #bb5d5d",
".T c #bb6c6c",
"av c #bc5e5e",
"#M c #bc6767",
"#f c #bcbcbc",
"#d c #bd5f5f",
"aO c #bd6d6d",
"aW c #bdbdbd",
".X c #be5f5f",
"aC c #be6060",
".z c #bebebe",
"#X c #c06060",
".x c #c06666",
"a1 c #c16767",
".R c #c1c1c1",
"ay c #c26060",
"b# c #c3b7b7",
".v c #c4b5b5",
".f c #c4b9b9",
"aG c #c56262",
"ac c #c56969",
"#3 c #c7c0c0",
"#U c #c8c7c7",
"ai c #cb6565",
".8 c #cfcece",
"#R c #d06868",
"aV c #d06d6d",
".H c #d06e6e",
"#V c #d1d0d0",
"af c #d26969",
"a8 c #d2cece",
".k c #d3cfcf",
".s c #d46e6e",
"#F c #d4d3d3",
".4 c #d56a6a",
"a5 c #d56d6d",
"aI c #d6d6d6",
"aL c #d86c6c",
"## c #d86e6e",
".6 c #d8d5d5",
".0 c #d8d8d8",
".2 c #d97070",
"an c #da6d6d",
"#. c #da6f6f",
"aT c #dad9d9",
"aK c #db7272",
".F c #dbdada",
".n c #dc6e6e",
"aZ c #dd6f6f",
".C c #de7070",
"aD c #e06f6f",
"aA c #e2e2e2",
"#E c #e3e2e2",
"#b c #e3e3e3",
"aH c #e47171",
"aw c #e47272",
"a3 c #e4e0e0",
"#r c #e4e4e4",
".p c #e5e2e2",
".U c #e67676",
".a c #e6e3e3",
"aP c #e77676",
".u c #e7e4e4",
"#5 c #e97474",
"#L c #ea7474",
"#9 c #ea7575",
".O c #ea7777",
".J c #ebe9e9",
"aQ c #ebeaea",
"aa c #ebebeb",
".e c #eceaea",
"at c #ed7676",
"#p c #ed7777",
"#n c #ededed",
"az c #ee7777",
"aq c #eeeeee",
"#j c #efefef",
"#B c #f07878",
"#H c #f0f0f0",
".y c #f27979",
"#4 c #f2f2f2",
"a2 c #f37979",
".I c #f37a7a",
"#a c #f47a7a",
"ak c #f57b7b",
"#w c #f5f5f5",
"#S c #f67b7b",
".t c #f77c7c",
"a7 c #f7f7f7",
"a6 c #f87c7c",
".7 c #f8f7f7",
".j c #f8f8f8",
".V c #f97c7c",
".3 c #f97d7d",
".o c #f9f9f9",
".9 c #fa7d7d",
".# c #fafafa",
"#1 c #fb7e7e",
"#8 c #fbfbfb",
".N c #fc7e7e",
"#Z c #fcfcfc",
".D c #fd7f7f",
".d c #fdfdfd",
".W c #fe7f7f",
".E c #fefefe",
".i c #ff8080",
"Qt c #ffffff",
"QtQtQtQtQtQtQtQtQtQtQtQtQtQtQtQtQtQtQtQtQtQtQtQtQtQtQtQtQtQtQtQtQtQtQtQtQtQtQtQtQtQtQtQtQtQtQtQtQtQtQtQtQtQtQtQtQtQtQtQtQtQtQtQt",
"QtQtQtQtQtQtQtQtQtQtQtQtQtQtQtQtQtQtQtQtQtQtQtQtQtQtQtQtQtQtQtQtQtQtQtQtQtQtQtQtQtQtQtQtQtQtQtQtQtQtQtQtQtQtQtQtQtQtQtQtQtQtQtQt",
"QtQtQtQtQtQtQtQtQtQtQtQtQtQtQtQtQtQtQtQtQtQtQtQtQtQtQtQtQtQtQtQtQtQtQtQtQtQtQtQtQtQtQtQtQtQtQtQtQtQtQtQtQtQtQtQtQtQtQtQtQtQtQtQt",
"QtQtQtQtQtQtQtQtQtQtQtQtQtQtQtQtQtQtQtQtQtQtQtQtQtQtQtQtQtQtQtQtQtQtQtQtQtQtQtQtQtQtQtQtQtQtQtQtQtQtQtQtQtQtQtQtQtQtQtQtQtQtQtQt",
"QtQtQtQtQtQtQtQtQtQtQtQtQtQtQtQtQtQtQtQtQtQtQtQtQtQtQtQtQtQtQtQtQtQtQtQtQtQtQtQtQtQtQtQtQtQtQtQtQtQtQtQtQtQtQtQtQtQtQtQtQtQtQtQt",
"QtQtQtQtQtQtQtQtQtQtQtQtQtQtQtQtQtQtQtQtQtQtQtQtQtQtQtQtQtQtQtQtQtQtQtQtQtQtQtQtQtQtQtQtQtQtQtQtQtQtQtQtQtQtQtQtQtQtQtQtQtQtQtQt",
"QtQtQtQtQtQtQtQtQtQtQtQtQtQtQtQtQtQtQtQtQtQtQtQtQtQtQtQtQtQtQtQtQtQtQtQtQtQtQtQtQtQtQtQtQtQtQtQtQtQtQtQtQtQtQtQtQtQtQtQtQtQtQtQt",
"QtQtQtQtQtQtQtQtQtQtQtQtQtQtQtQtQtQtQtQtQtQtQtQtQtQtQtQtQtQtQtQtQtQtQtQtQtQtQtQtQtQtQtQtQtQtQtQtQtQtQtQtQtQtQtQtQtQtQtQtQtQtQtQt",
"QtQtQtQtQtQtQtQtQtQtQtQtQtQtQtQtQtQtQtQtQtQtQtQtQtQtQtQtQtQtQtQtQtQtQtQtQtQtQtQtQtQtQtQtQtQtQtQtQtQtQtQtQtQtQtQtQtQtQtQtQtQtQtQt",
"QtQtQtQtQtQtQtQtQtQtQtQtQtQtQtQtQt.#.#.a.a.a.b.b.b.b.c.c.c.c.c.c.c.c.c.c.c.c.b.b.b.b.a.a.a.#.#QtQtQtQtQtQtQtQtQtQtQtQtQtQtQtQtQt",
"QtQtQtQtQtQtQtQtQtQtQtQtQtQt.d.e.e.f.f.g.g.g.h.h.h.h.i.i.i.i.i.i.i.i.i.i.i.i.h.h.h.h.g.g.g.f.f.e.e.dQtQtQtQtQtQtQtQtQtQtQtQtQtQt",
"QtQtQtQtQtQtQtQtQtQtQtQt.j.j.k.l.l.m.m.n.n.n.i.i.i.i.i.i.i.i.i.i.i.i.i.i.i.i.i.i.i.i.n.n.n.m.m.l.l.k.j.jQtQtQtQtQtQtQtQtQtQtQtQt",
"QtQtQtQtQtQtQtQtQtQt.o.p.q.q.r.s.s.t.t.i.i.i.i.i.i.i.i.i.i.i.i.i.i.i.i.i.i.i.i.i.i.i.i.i.i.t.t.s.s.r.q.q.p.oQtQtQtQtQtQtQtQtQtQt",
"QtQtQtQtQtQtQtQt.#.u.v.w.x.x.y.i.i.i.i.i.i.i.i.i.i.i.i.i.i.i.i.i.i.i.i.i.i.i.i.i.i.i.i.i.i.i.i.i.i.y.x.x.w.v.u.#QtQtQtQtQtQtQtQt",
"QtQtQtQtQtQtQtQt.z.A.B.C.D.D.i.i.i.i.i.i.i.i.i.i.i.i.i.i.i.i.i.i.i.i.i.i.i.i.i.i.i.i.i.i.i.i.i.i.i.i.D.D.C.B.A.zQtQtQtQtQtQtQtQt",
"QtQtQtQtQtQt.E.F.G.H.I.i.i.i.i.D.D.D.D.D.i.i.i.i.i.i.i.i.i.i.i.i.i.i.i.i.i.i.i.i.i.i.i.i.i.i.i.i.D.D.D.D.D.I.H.G.F.EQtQtQtQtQtQt",
"QtQtQtQt.d.J.K.L.M.i.i.i.N.O.O.P.P.P.P.P.O.O.N.i.i.i.i.i.i.i.i.i.i.i.i.i.i.i.i.i.i.i.i.i.i.N.O.O.P.P.P.P.P.O.O.Q.L.K.J.dQtQtQtQt",
"QtQtQtQt.R.S.T.U.V.i.i.W.X.Y.Y.Z.Z.Z.Z.Z.Y.Y.X.W.i.i.i.i.i.i.i.i.i.i.i.i.i.i.i.i.i.i.i.i.W.X.Y.Y.Z.Z.Z.Z.Z.Y.Y.Q.U.T.S.RQtQtQtQt",
"QtQtQt.0.1.2.3.D.i.i.i.4.5.6.6.7.8.8.8.8.6.6.5.4.i.i.i.i.i.i.i.i.i.i.i.i.i.i.i.i.i.i.i.9#..5.6.6.7.7.7.7.7.6.6.5###a.2.1.0QtQtQt",
"QtQt#b#c#d.i.W.i.i.i.i#e#f.E.E.E#g#g#g#g.E.E#f#e.i.i.i.i.i.i.i.i.i.i.i.i.i.i.i.i.i.i.i#h#i#f.E.E.E.E.E.E.E.E.E#f#i#h.i#d#c#bQtQt",
"Qt#j#k#l.i.i.i.i.i.i.i#m#nQtQtQt#o#o#o#oQtQt#n#m.i.i.i.i.i.i.i.i.i.i.i.i.i.i.i.i.i.i#p#q#rQtQt#n#n#n#nQtQtQtQtQt#r#q#p.i#l#k#jQt",
"Qt#s#t#a.i.i.i.i.i.i.i#u#v#w#wQt#x#x#x#x#w#w#v#u.i.i.i.i.i.i.i.i.i.i.i.i.i.i.i.i.i.i#y#xQtQtQt#z#z#z#zQtQtQtQtQtQt#x#y.i#a#t#sQt",
".E#A#B.i.i.i.i.i.i.i.i#B#C#D#D#E#F#F#F#F#D#D#C#B.i.i.i.i.i.i.i.i.i.i.i.i.i.i.i.i.i.i#G#HQtQtQt#I#I#I#IQtQtQtQtQtQt#H#G.i.i#B#A.E",
"#J#K.i.i.i.i.i.i.i.i.i.i#L#M#M#N#N#N#N#N#M#M#L.i.i.i.i.i.i.i.i.i.i.i.i.i.i.i.i.i.i.i#OQtQtQtQt#P#P#P#PQtQtQtQtQtQtQt#O.i.i.i#K#J",
"#Q#R.i.i.i.i.i.i.i.i.i.i.i#S#S.2.2.2.2.2#S#S.i.i.i.i.i.i.i.i.i.i.i.i.i.i.i.i.i.i.i.i#T#UQtQtQt#V#V#V#VQtQtQtQtQtQt#U#T.i.i.i#R#Q",
"#W.N.i.i.i.i.i.i.i.i.i.i.i.i.i.N.N.N.N.N.i.i.i.i.i.i.i.i.i.i.i.i.i.i.i.i.i.i.i.i.i.i#X#YQtQtQt#Z#Z#Z#ZQtQtQtQtQtQt#Y#X.i.i.i.N#W",
"#0.i.i.i.i.i.i.i.i.i.i.i.i.i.i.i.i.i.i.i.i.i.i.i.i.i.i.i.i.i.i.i.i.i.i.i.i.i.i.i.i.i#1#2#3#4QtQtQtQtQtQtQtQtQt#4#3#2#1.i.i.i.i#0",
"#0.i.i.i.i.i.i.i.i.i.W.i.i.i.i.i.i.i.i.i.i.i.i.i.i.i.i.i.i.i.i.i.i.i.i.i.i.i.i.i.i.i.i#5#6#7#8#8.E.E.E.E.E#8#8#7#6#5.i.i.i.i.i#0",
"#0.i.i.i.i.i.i.i.i.i#9.i.i.i.i.i.i.i.i.i.i.i.i.i.i.i.i.i.i.i.i.i.i.i.i.i.i.i.i.i.i.i.i.W.9a.a#a#aaaaaaaaaaa#a#a..9.W.i.i.i.i.i#0",
"#0.i.i.i.i.i.i.i.i.iab.i.i.i.i.i.i.i.i.i.i.i.i.i.i.i.i.i.i.i.i.i.i.i.i.i.i.i.i.i.i.i.i.i.i.yacacadadadadadacac.y.i.i.i.i.i.i.i#0",
"#W.N.i.i.i.i.i.i.i.i#O.i.i.i.i.i.i.i.i.i.i.i.i.i.i.i.i.i.i.i.i.i.i.i.i.i.i.i.i.i.i.i.i.i.i.i.i.i#a#a#a#a#a.i.i.i.i.i.i.i.i.i.N#W",
"aeaf.i.i.i.i.i.i.i.i#O.i.i.i.i.i.i.i.i.i.i.i.i.i.i.i.i.i.i.i.i.i.i.i.i.i.i.i.i.i.i.i.i.i.i.i.i.i.i.i.i.i.i.i.i.i.i.i.i.i.i.iafae",
"agah.i.i.i.i.i.i.i.i#O.i.i.i.i.i.i.i.i.i.i.i.i.i.i.i.i.i.i.i.i.i.i.i.i.i.i.i.i.i.i.i.i.i.i.i.i.i.i.i.i.i.i.i.i.i.i.i.i.i.i.iahag",
".d#o#B.i.i.i.i.i.i.i#G#B.i.i.i.i.i.i.i.i.i.i.i.i.i.i.i.i.i.i.i.i.i.i.i.i.i.N.N.N.N.N.y.y.y.y.yaiaiai.i.i.i.i.i.i.i.i.i.i.i#B#o.d",
"Qtaj#tak.i.i.i.i.i.ialamak.i.i.i.i.i.i.i.i.i.i.i.i.i.i.i.i.i.iakakakakakakanananananaoaoaoaoaoapapap.i.i.i.i.i.i.i.i.i.iak#tajQt",
"Qtaqaras.i.i.i.i.i.iatauavaw.i.i.i.i.i.i.i.i.i.i.i.iawawawawawavavavavavavaxaxaxaxaxayayayayayazazaz.i.i.i.i.i.i.i.i.i.iasaraqQt",
"QtQtaAaBaC.i.W.i.i.i.iaDaEaFaGaGaGaGaGaGaGaGaGaGaGaGaFaFaFaFaFaEaEaEaEaEaEaHaHaHaHaH.9.9.9.9.9.i.i.i.i.i.i.i.i.i.i.W.iaCaBaAQtQt",
"QtQtQtaIaJaK.3.D.i.i.i.i.9aLaMaMaMaMaMaMaMaMaMaMaMaMaLaLaLaLaL.9.9.9.9.9.9.i.i.i.i.i.i.i.i.i.i.i.i.i.i.i.i.i.i.i.D.3aKaJaIQtQtQt",
"QtQtQtQt.zaNaOaP.3.i.i.i.i.W#B#B#B#B#B#B#B#B#B#B#B#B.W.W.W.W.W.i.i.i.i.i.i.i.i.i.i.i.i.i.i.i.i.i.i.i.i.i.i.i.i.3aPaOaN.zQtQtQtQt",
"QtQtQtQt.daQaRaS#d.i.i.i.i.i.i.i.i.i.i.i.i.i.i.i.i.i.i.i.i.i.i.i.i.i.i.i.i.i.i.i.i.i.i.i.i.i.i.i.i.i.i.i.i.i.i#daSaRaQ.dQtQtQtQt",
"QtQtQtQtQtQt.EaTaUaV#a.i.i.i.i.i.i.i.i.i.i.i.i.i.i.i.i.i.i.i.i.i.i.i.i.i.i.i.i.i.i.i.i.i.i.i.i.i.i.i.i.i.i#aaVaUaT.EQtQtQtQtQtQt",
"QtQtQtQtQtQtQtQtaWaXaYaZ.W.W.i.i.i.i.i.i.i.i.i.i.i.i.i.i.i.i.i.i.i.i.i.i.i.i.i.i.i.i.i.i.i.i.i.i.i.i.W.WaZaYaXaWQtQtQtQtQtQtQtQt",
"QtQtQtQtQtQtQtQt.#.a.va0a1a1a2.i.i.i.i.i.i.i.i.i.i.i.i.i.i.i.i.i.i.i.i.i.i.i.i.i.i.i.i.i.i.i.i.i.ia2a1a1a0.v.a.#QtQtQtQtQtQtQtQt",
"QtQtQtQtQtQtQtQtQtQt.ja3a4a4.ra5a5a6a6.i.i.i.i.i.i.i.i.i.i.i.i.i.i.i.i.i.i.i.i.i.i.i.i.i.ia6a6a5a5.ra4a4a3.jQtQtQtQtQtQtQtQtQtQt",
"QtQtQtQtQtQtQtQtQtQtQtQta7a7a8a9a9b.b.aZaZaZ.i.i.i.i.i.i.i.i.i.i.i.i.i.i.i.i.i.i.i.iaZaZaZb.b.a9a9a8a7a7QtQtQtQtQtQtQtQtQtQtQtQt",
"QtQtQtQtQtQtQtQtQtQtQtQtQtQt.daQaQb#b#.g.g.gbabababa.i.i.i.i.i.i.i.i.i.i.i.ibabababa.g.g.gb#b#aQaQ.dQtQtQtQtQtQtQtQtQtQtQtQtQtQt",
"QtQtQtQtQtQtQtQtQtQtQtQtQtQtQtQtQt.#.#.p.p.pbbbbbbbbbcbcbcbcbcbcbcbcbcbcbcbcbbbbbbbb.p.p.p.#.#QtQtQtQtQtQtQtQtQtQtQtQtQtQtQtQtQt",
"QtQtQtQtQtQtQtQtQtQtQtQtQtQtQtQtQtQtQtQtQtQtQtQtQtQtQtQtQtQtQtQtQtQtQtQtQtQtQtQtQtQtQtQtQtQtQtQtQtQtQtQtQtQtQtQtQtQtQtQtQtQtQtQt",
"QtQtQtQtQtQtQtQtQtQtQtQtQtQtQtQtQtQtQtQtQtQtQtQtQtQtQtQtQtQtQtQtQtQtQtQtQtQtQtQtQtQtQtQtQtQtQtQtQtQtQtQtQtQtQtQtQtQtQtQtQtQtQtQt",
"QtQtQtQtQtQtQtQtQtQtQtQtQtQtQtQtQtQtQtQtQtQtQtQtQtQtQtQtQtQtQtQtQtQtQtQtQtQtQtQtQtQtQtQtQtQtQtQtQtQtQtQtQtQtQtQtQtQtQtQtQtQtQtQt",
"QtQtQtQtQtQtQtQtQtQtQtQtQtQtQtQtQtQtQtQtQtQtQtQtQtQtQtQtQtQtQtQtQtQtQtQtQtQtQtQtQtQtQtQtQtQtQtQtQtQtQtQtQtQtQtQtQtQtQtQtQtQtQtQt",
"QtQtQtQtQtQtQtQtQtQtQtQtQtQtQtQtQtQtQtQtQtQtQtQtQtQtQtQtQtQtQtQtQtQtQtQtQtQtQtQtQtQtQtQtQtQtQtQtQtQtQtQtQtQtQtQtQtQtQtQtQtQtQtQt",
"QtQtQtQtQtQtQtQtQtQtQtQtQtQtQtQtQtQtQtQtQtQtQtQtQtQtQtQtQtQtQtQtQtQtQtQtQtQtQtQtQtQtQtQtQtQtQtQtQtQtQtQtQtQtQtQtQtQtQtQtQtQtQtQt",
"QtQtQtQtQtQtQtQtQtQtQtQtQtQtQtQtQtQtQtQtQtQtQtQtQtQtQtQtQtQtQtQtQtQtQtQtQtQtQtQtQtQtQtQtQtQtQtQtQtQtQtQtQtQtQtQtQtQtQtQtQtQtQtQt",
"QtQtQtQtQtQtQtQtQtQtQtQtQtQtQtQtQtQtQtQtQtQtQtQtQtQtQtQtQtQtQtQtQtQtQtQtQtQtQtQtQtQtQtQtQtQtQtQtQtQtQtQtQtQtQtQtQtQtQtQtQtQtQtQt",
"QtQtQtQtQtQtQtQtQtQtQtQtQtQtQtQtQtQtQtQtQtQtQtQtQtQtQtQtQtQtQtQtQtQtQtQtQtQtQtQtQtQtQtQtQtQtQtQtQtQtQtQtQtQtQtQtQtQtQtQtQtQtQtQt",
"QtQtQtQtQtQtQtQtQtQtQtQtQtQtQtQtQtQtQtQtQtQtQtQtQtQtQtQtQtQtQtQtQtQtQtQtQtQtQtQtQtQtQtQtQtQtQtQtQtQtQtQtQtQtQtQtQtQtQtQtQtQtQtQt",
"QtQtQtQtQtQtQtQtQtQtQtQtQtQtQtQtQtQtQtQtQtQtQtQtQtQtQtQtQtQtQtQtQtQtQtQtQtQtQtQtQtQtQtQtQtQtQtQtQtQtQtQtQtQtQtQtQtQtQtQtQtQtQtQt",
"QtQtQtQtQtQtQtQtQtQtQtQtQtQtQtQtQtQtQtQtQtQtQtQtQtQtQtQtQtQtQtQtQtQtQtQtQtQtQtQtQtQtQtQtQtQtQtQtQtQtQtQtQtQtQtQtQtQtQtQtQtQtQtQt",
"QtQtQtQtQtQtQtQtQtQtQtQtQtQtQtQtQtQtQtQtQtQtQtQtQtQtQtQtQtQtQtQtQtQtQtQtQtQtQtQtQtQtQtQtQtQtQtQtQtQtQtQtQtQtQtQtQtQtQtQtQtQtQtQt",
"QtQtQtQtQtQtQtQtQtQtQtQtQtQtQtQtQtQtQtQtQtQtQtQtQtQtQtQtQtQtQtQtQtQtQtQtQtQtQtQtQtQtQtQtQtQtQtQtQtQtQtQtQtQtQtQtQtQtQtQtQtQtQtQt",
"QtQtQtQtQtQtQtQtQtQtQtQtQtQtQtQtQtQtQtQtQtQtQtQtQtQtQtQtQtQtQtQtQtQtQtQtQtQtQtQtQtQtQtQtQtQtQtQtQtQtQtQtQtQtQtQtQtQtQtQtQtQtQtQt",
"QtQtQtQtQtQtQtQtQtQtQtQtQtQtQtQtQtQtQtQtQtQtQtQtQtQtQtQtQtQtQtQtQtQtQtQtQtQtQtQtQtQtQtQtQtQtQtQtQtQtQtQtQtQtQtQtQtQtQtQtQtQtQtQt",
"QtQtQtQtQtQtQtQtQtQtQtQtQtQtQtQtQtQtQtQtQtQtQtQtQtQtQtQtQtQtQtQtQtQtQtQtQtQtQtQtQtQtQtQtQtQtQtQtQtQtQtQtQtQtQtQtQtQtQtQtQtQtQtQt"};
