/* XPM */
static char *dummy[]={
"64 64 6 1",
". c None",
"# c #000000",
"c c #010000",
"b c #ff0000",
"a c #ff8080",
"d c #ffffff",
"..........................############..........................",
"......................####aaaaaaaaaaaa####......................",
"...................###aaaaaaaaaaaaaaaaaaaa###...................",
".................##aaaaaaaaaaaaaaaaaaaaaaaaaa##.................",
"...............##aaaaaaaaaaaaaaaaaaaaaaaaaaaaaa##...............",
"..............#aaaaaaaaaaaaaaaaaaaaaaaaaaaaaaaaaa#..............",
"............##aaaaaaaaaaaaaaaaaaaaaaaaaaaaaaaaaaaa##............",
"...........#aaaaaaaaaaaaaaaaaaaaaaaaaaaaaabbaaaaaaaa#...........",
"..........#aaaaaaaaaaaaaaaaaaaaaaaaaaaaaaabbaaaaaaaaa#..........",
".........#aaaaaaaaaaaaaaaaaaaaaaaaaaaaaaabbaaaaaaaaaaa#.........",
"........#aaaaaaaaaaaaaaaaaaaaaaaaaaaaaaaaabaaaaaaaaaaaa#........",
"........#aaaaaaaaaaaaaaaaaaaaaaaaaaaaaaaaaaaaaaaaaaaaaa#........",
".......#aaaaaaaaaaaaaaaaaaaaaaaabaaaaaaaaaaaaaaaaaaaaaaa#.......",
"......#aaaaaaaacccccaaaaaaaaaaabbbaaaaaaaaaaaaaaaaaaaaaaa#......",
".....#aaaaaaaccdddddccaaaaaaaaabbbaaaaaaaaaaaaaaaaaaaaaaaa#.....",
"....#aaaaaaacdddddddddcaaaaaaaabbbaaaaaaaaaaaaaaaaaaaaaaaaa#....",
"....#aaaaaaacdddddddddcaaaaaaaaabbaaaaaaaaaaaaaaaaaaaaaaaaa#....",
"...#aaaaaaacddddccccdddcaaaaaaaaaaaaaaaaaaaaaaaaaaaaaaaaaaaa#...",
"...#aaaaaaacddddccccdddcaaaabbaaaaaaaaaaaaaaaaaaaaaaaaaaaaaa#...",
"..#aaaaaaaacddddccccdddcaaaabaaaaaaaaaaaaaaaaaaaaaaaaaaaaaaaa#..",
"..#aaaaaaaacddddccccdddcaaaaaaaaaaaaaaaacaaaaaaaaaaaaaaaaaaaa#..",
".#aaaaaaaaaacdddddddddcaaaaaaaaaaaaaaaaaaccaaaaaaaaaaaaaaaaaaa#.",
".#aaaaaaaaaacdddddddddcaaaaaaaaaaabaaaaaaaaccaaaaaaaaaaaccaaaa#.",
".#aaaaaaaaaaaccdddddccaaaaaaaaaaaabbaaaaaabaacccaaaaacccaaaaaa#.",
".#aaaaaaaaaaaaacccccaaaaaaaaaaaaaaabaaaaaabbaaaacccccaaaaaaaaa#.",
"#aaaaaaaaabaaaaaaaaaaaaaaaaaaaaaaaabaaaabbabbaaabaaaababaaaaaaa#",
"#aaaaaaaaabbaaaaaaaaaaaaaaaaaaaaaaaabaaaabbbbaaabaaaaabbaaaaaaa#",
"#aaaaaaaaaabaaaaaaaaaaaaaaaaaaaaaaaabaaaabbaabaabaaaaabbbaaaaaa#",
"#aaaaaaaaaabaaaaaaaaaaaaaaaaaaaaaaabbaaaaabaaababaaaabaabaaaaaa#",
"#aaabaaaaaaabaaaaaaaaaaaaaaaaaaaaaaaaaaaaabaaabbbaaaabaabaaaaaa#",
"#aaabaaaaaaabaaaaaaaaaaaaaaaaaaaaaaaaaaaaabaaaabbaaabaaabaaaaaa#",
"#aaabaaaaaaaaaaaaaaaaaaaaaaaaaaaaaaaaaaaaabaaaaabbaabaaabaaaaaa#",
"#aaabaaaaaaaaaaaaaaaaaaaabbaaaaaaaaaaaaaaabaaaaabababbaaaaaaaaa#",
"#aaabaaaaaaaaaaaaaaaaabbbbaaaaaaaaaaaaaaaaaaaaaaaaaaabaaaaaaaaa#",
"#aaaaaaaaaaaaaaaaaaabbaaaaaaaaaaabaaaaaaaaaaaaaaaaaaaaaaabaaaaa#",
"#aaaaaaaaaaaaaaaaaaaaaaaaaaaaaaaaabbaaaaaaaaaaaaaaaaaaaaaabaaaa#",
"#aaaaaaaaaaaaaaaaaaaaaaaaaaaaaaaaabbaaaaaaaaaaaaaaaaaaaaaabaaaa#",
"#aaaaaaaaaaaaaaaaaaaaaaaaaaaaaaaaaabbaaaaaaaaaaaaaaaaaaaaaaaaaa#",
"#aaaaaaaaaaaaaaaaaaaaaaaaaaaaaaaaaabbaaaaaaaaaaaaaaaaaaaaaaaaaa#",
".#aaaaaaaaaaaaacccccccccaaaaaaaaaaaaaaaaaaaaaaaaaaaaaaaaaaaaaa#.",
".#aaaaaaaaaaaacaaaaaaaaaccccaaaaaaaaaaaaaaaaaaaaaaaaaaaaaaaaaa#.",
".#aaaaaaaaaaacaaaaaaaaaaaaaaccccaaaaaaaaaaaaaaaaaaaaaaaaaaaaaa#.",
".#aaaaaaaaaacaaaaaaaaaaaaaaaaaaaccccaaaaaaaaaaaaaaaaaaabaaaaaa#.",
"..#aaaaaaaaacaaaaaaaaaaaaaaaaaaaaaaacccaaaaaaaaaaaaaaaabbaaaa#..",
"..#aaaaaaaaacaaaaaaaaaaaaaaaaaaaaaaaaaaccccaaaaaaaaaaaaabaaaa#..",
"...#aaaaaaacaaaaaaaaaaaaaaaaaaaaaaaaaaaaaaacccaaaaaaaaaabaaa#...",
"...#aaaaaaacaaaaaaaaaaaaaaaaaaaaaaaaaaaaaaaaaaccccaaaaabbaaa#...",
"....#aaaaaacaaaaaaaaaaaaaaaaaaaaaaaaaaaaaaaaaaaaaaccaaabaaa#....",
"....#aaaaaaaaaaaaaaaaaaaaaaaaaaaaaaaaaaaaaaaaaaaaaaaaaaaaaa#....",
".....#aaaaaaaaaaaaaaaaaaaaaaaaaaaaaaaaaaaaaaaaaaaaaaaaaaaa#.....",
"......#aaaaaaaaaaaaaaaaaaaaaaaaaaaaaaaaaaaaaaaaaaaaaaaaaa#......",
".......#aaaaaaaaaaaaabaaaaaaaaaaaaaaaaaaaaaaaaaaaaaaaaaa#.......",
"........#aaaaaaaaaaaabbaaaaaaaaaaaaaaaaaaaabaaaaaaaaaaa#........",
"........#aaaaaaaaaaaaaaaaaaaaaaaaaaaaabbaabbaaaaaaaaaaa#........",
".........#aaaaaaaaaaaaaaaaabaaaaaaaaaababbbaaaaaaaaaaa#.........",
"..........#aaaaaaaaaaaaaaaabaaaaaaaaaaaaaaaaaaaaaaaaa#..........",
"...........#aaaaaaaaaaaaaaabbaaaaaaaaaaaaaaaaaaaaaaa#...........",
"............##aaaaaaaaaaaaaabbaaaaaaaaaaaaaaaaaaaa##............",
"..............#aaaaaaaaaaaaaabaaaaaaaaaaaaaaaaaaa#..............",
"...............##aaaaaaaaaaaaaaaaaaaaaaaaaaaaaa##...............",
".................##aaaaaaaaaaaaaaaaaaaaaaaaaa##.................",
"...................###aaaaaaaaaaaaaaaaaaaa###...................",
"......................####aaaaaaaaaaaa####......................",
"..........................############.........................."};
