/* XPM */
static char *dummy[]={
"64 64 6 1",
". c None",
"# c #000000",
"c c #010000",
"b c #ff0000",
"a c #ff8080",
"d c #ffffff",
"..........................############..........................",
"......................####aaaaaaaaaaaa####......................",
"...................###aaaaaaaaaaaaaaaaaaaa###...................",
".................##aaaaaaaaaaaaaaaaaaaaaaaaaa##.................",
"...............##aaaaaaaaaaaaaaaaaaaaaaaaaaaaaa##...............",
"..............#aaaaaaaaaaaaaaaaaaaaaaaaaaaaaaaaaa#..............",
"............##aaaaaaaaaaaaaaaaaaaaaaaaaaaaaaaaaaaa##............",
"...........#aaaaaaaaaaaaaaaaaaaaaaaaaaaaaaaaaaaaaaaa#...........",
"..........#aaaaaaaaaaaaaaaaaaaaaaaaaaaaaaaaaaaaaaaaaa#..........",
".........#aaaaaaaaaaaaaaaaaaaaaaaaaaaaaaaaaaaaaaaaaaaa#.........",
"........#aaaaaaaaaaaaaaaaaaaaaaaaaaaaaaaaaaaaaaaaaaaaaa#........",
"........#aaaaaaaaaaaaaaaaaaaaaaaaaaaaaaaaaaaaaaaaaaaaaa#........",
".......#aaaaaaaaaaaaaaaaaaaaaaaabaaaaaaaaaaaaaaaaaaaaaaa#.......",
"......#aaaaaaaacccccaaaaaaaaaaabbbaaaaaaaaaaaaaacccccaaaa#......",
".....#aaaaaaaccdddddccaaaaaaaaabbbaaaaaaaaaaaaccdddddccaaa#.....",
"....#aaaaaaacdddddddddcaaaaaaaabbbaaaaaaaaaaacdddddddddcaaa#....",
"....#aaaaaaacdddddddddcaaaaaaaaabbaaaaaaaaaaacdddddddddcaaa#....",
"...#aaaaaaacddddccccdddcaaaaaaaaaaaaaaaaaaaacdddddddddddcaaa#...",
"...#aaaaaaacddddccccdddcaaaabbaaaaaaaaaaaaacdddddddddddddcaa#...",
"..#aaaaaaaacddddccccdddcaaaabaaaaaaaaaaaaaacdddddddddddddcaaa#..",
"..#aaaaaaaacddddccccdddcaaaaaaaaaaaaaaaaaaacdddddddddddddcaaa#..",
".#aaaaaaaaaacdddddddddcaaaaaaaaaaaaaaaaaaacddddccccdddddddcaaa#.",
".#aaaaaaaaaacdddddddddcaaaaaaaaaaabaaaaaaacddddccccdddddddcaaa#.",
".#aaaaaaaaaaaccdddddccaaaaaaaaaaaabbaaaaaacddddccccdddddddcaaa#.",
".#aaaaaaaaaaaaacccccaaaaaaaaaaaaaaabaaaaaacddddccccdddddddcaaa#.",
"#aaaaaaaaabaaaaaaaaaaaaaaaaaaaaaaaabaaaaaacdddddddddddddddcaaaa#",
"#aaaaaaaaabbaaaaaaaaaaaaaaaaaaaaaaaabaaaaacdddddddddddddddcaaaa#",
"#aaaaaaaaaabaaaaaaaaaaaaaaaaaaaaaaaabaaaaaacdddddddddddddcaaaaa#",
"#aaaaaaaaaabaaaaaaaaaaaaaaaaaaaaaaabbaaaaaacdddddddddddddcaaaaa#",
"#aaaaaaaaaaabaaaaaaaaaaaaaaaaaaaaaaaaaaaaaacdddddddddddddcaaaaa#",
"#aaaaaaaaaaabaaaaaaaaaaaaaaaaaaaaaaaaaaaaaaacdddddddddddcaaaaaa#",
"#aaaaaaaaaaaaaaaaaaaaaaaaaaaaaaaaaaaaaaaaaaaacdddddddddcaaaaaaa#",
"#aaaaaaaaaaaaaaaaaaaaaaaabbaaaaaaaaaaaaaaaaaacdddddddddcaaaaaaa#",
"#aaaaaaaaaaaaaaaaaaaaabbbbaaaaaaaaaaaaaaaaaaaaccdddddccaaaaaaaa#",
"#aaaaaaaaaaaaaaaaaaabbaaaaaaaaaaabaaaaaaaaaaaaaacccccaaaaaaaaaa#",
"#aaaaaaaaaaaaaaaaaaaaaaaaaaaaaaaaabbaaaaaaaaaaaaaaaaaaaaaaaaaaa#",
"#aaaaaaaaaaaaaaaaaaaaaaaaaaaaaaaaabbaaaaaaaaaaaaaaaaaaaaaaaaaaa#",
"#aaaaaaaaaaaaaaaaaaaaaaaaaaaaaaaaaabbaaaaaaaaaaaaaaaaaaaaaaaaaa#",
"#aaaaaaaaaaaaaaaaaaaaaaaaaaaaaaaaaabbaaaaaaaaaaaaaaaaaaaaaaaaaa#",
".#aaaaaaaaaaaaaaaaaaaaaaaaaaaaaaaaaaaaaaaaaaaaaaaaaaaaaaaaaaaa#.",
".#aaaaaaaaaaaaaaaaaaaaaaaaaaaaaaaaaaaaaaaaaaaaaaaaaaaaaaaaaaaa#.",
".#aaaaaaaaaaaaaaaaaaaaaaaaaaaaaaaaaaaaaaaaaaaaaaaaaaaaaaaaaaaa#.",
".#aaaaaaaaaaaaaaaacccccccccccccccccccccccccccaaaaaaaaaaaaaaaaa#.",
"..#aaaaaaaaaacccccaaaaaaaaaaaaaaaaaaaaaaaaaaaccccccaaaaaaaaaa#..",
"..#aaaaaaaaaaaaaaaaaaaaaaaaaaaaaaaaaaaaaaaaaaaaaaaaaaaaaaaaaa#..",
"...#aaaaaaaaaaaaaaaaaaaaaaaaaaaaaaaaaaaaaaaaaaaaaaaaaaaaaaaa#...",
"...#aaaaaaaaaaaaaaaaaaaaaaaaaaaaaaaaaaaaaaaaaaaaaaaaaaaaaaaa#...",
"....#aaaaaaaaaaaaaaaaaaaaaaaaaaaaaaaaaaaaaaaaaaaaaaaaaaaaaa#....",
"....#aaaaaaaaaaaaaaaaaaaaaaaaaaaaaaaaaaaaaaaaaaaaaaaaaaaaaa#....",
".....#aaaaaaaaaaaaaaaaaaaaaaaaaaaaaaaaaaaaaaaaaaaaaaaaaaaa#.....",
"......#aaaaaaaaaaaaaaaaaaaaaaaaaaaaaaaaaaaaaaaaaaaaaaaaaa#......",
".......#aaaaaaaaaaaaaaaaaaaaaaaaaaaaaaaaaaaaaaaaaaaaaaaa#.......",
"........#aaaaaaaaaaaaaaaaaaaaaaaaaaaaaaaaaaaaaaaaaaaaaa#........",
"........#aaaaaaaaaaaaaaaaaaaaaaaaaaaaaaaaaaaaaaaaaaaaaa#........",
".........#aaaaaaaaaaaaaaaaaaaaaaaaaaaaaaaaaaaaaaaaaaaa#.........",
"..........#aaaaaaaaaaaaaaaaaaaaaaaaaaaaaaaaaaaaaaaaaa#..........",
"...........#aaaaaaaaaaaaaaaaaaaaaaaaaaaaaaaaaaaaaaaa#...........",
"............##aaaaaaaaaaaaaaaaaaaaaaaaaaaaaaaaaaaa##............",
"..............#aaaaaaaaaaaaaaaaaaaaaaaaaaaaaaaaaa#..............",
"...............##aaaaaaaaaaaaaaaaaaaaaaaaaaaaaa##...............",
".................##aaaaaaaaaaaaaaaaaaaaaaaaaa##.................",
"...................###aaaaaaaaaaaaaaaaaaaa###...................",
"......................####aaaaaaaaaaaa####......................",
"..........................############.........................."};
