/* XPM */
static char *dummy[]={
"64 64 5 1",
"c c #000000",
". c #585858",
"b c #808080",
"# c #c0c0c0",
"a c #ffffff",
"................................................................",
"...#########################a......#######################aa#...",
"..##########################aa....#######################a###a..",
".############################aa..############################aa.",
".##############################..#############################a.",
".##############################..############################a#.",
".##############################..##############################.",
".##############################..##############################.",
".bb############################..##############################.",
".bbb###########################..b#############################.",
".bbbb##########################..bbb###########################.",
".bbbbbb########################..bbbbb#########################.",
".bbbbbbb#######################..bbbbbb########################.",
".cbbbbbbb#####################...cbbbbbb######################..",
"..cbbbbbbb###################.....cbbbbbb####################...",
"................................................................",
"................................................................",
"##########aaa......#########################a.....##############",
"#########a#a##....#######################a##aa...###############",
"#############aa..############################aa..###############",
"##############a..##########################a##a..###############",
"#############a#..############################a#..###############",
"###############..##############################..###############",
"###############..##############################..###############",
"###############..##############################..###############",
"###############..b#############################..###############",
"###############..bb############################..b##############",
"###############..bbbb##########################..bb#############",
"###############..bbbbb#########################..bbbb###########",
"###############..cbbbbb#######################..cbbbbbbb########",
"##############....cbbbbb#####################....cbbbbbbb#######",
"..................................................c.............",
"................................................................",
"...###############a###a###aaa......#########################a...",
"..#######################a#aaa....##########################aa..",
".####################a##a#a##aa..############################aa.",
".##########################a##a..##########################a##a.",
".#########################a##a#..############################a#.",
".########################a#####..##############################.",
".b###########################a#..##############################.",
".bb#########################a##..##############################.",
".bbb###########################..bb############################.",
".bbbb##########################..bbb###########################.",
".bbbbb#########################..bbbbb#########################.",
".bbbbbb########################..bbbbbbbb######################.",
".cbbbbbb######################...cbbbbbbb#####################..",
"..cbbbbbb####################....ccbbbbbbb###################...",
"..................................cc............................",
"................................................................",
"##########aaa......#######################aaa.....##############",
"###########aaa....#######################a#aaa...###############",
"#############aa..##############################..###############",
"##############a..##########################a###..###############",
"###############..##############################..###############",
"###############..##############################..###############",
"###############..##############################..###############",
"###############..bb############################..###############",
"###############..bb############################..###############",
"###############..bbb###########################..bb#############",
"###############..bbbb##########################..bbb############",
"###############..bbbbb#########################..bbbb###########",
"###############...bbbbbbb#####################...cbbbb##########",
"##############....cbbbbbb####################.....cbbbb#########",
"................................................................"};
