/* XPM */
static char *dummy[]={
"64 64 2 1",
". c #0000ff",
"# c #ff0000",
"........########........########........########........########",
"........########........########........########........########",
"........########........########........########........########",
"........########........########........########........########",
"........########........########........########........########",
"........########........########........########........########",
"........########........########........########........########",
"........########........########........########........########",
"########........########........########........########........",
"########........########........########........########........",
"########........########........########........########........",
"########........########........########........########........",
"########........########........########........########........",
"########........########........########........########........",
"########........########........########........########........",
"########........########........########........########........",
"........########........########........########........########",
"........########........########........########........########",
"........########........########........########........########",
"........########........########........########........########",
"........########........########........########........########",
"........########........########........########........########",
"........########........########........########........########",
"........########........########........########........########",
"########........########........########........########........",
"########........########........########........########........",
"########........########........########........########........",
"########........########........########........########........",
"########........########........########........########........",
"########........########........########........########........",
"########........########........########........########........",
"########........########........########........########........",
"........########........########........########........########",
"........########........########........########........########",
"........########........########........########........########",
"........########........########........########........########",
"........########........########........########........########",
"........########........########........########........########",
"........########........########........########........########",
"........########........########........########........########",
"########........########........########........########........",
"########........########........########........########........",
"########........########........########........########........",
"########........########........########........########........",
"########........########........########........########........",
"########........########........########........########........",
"########........########........########........########........",
"########........########........########........########........",
"........########........########........########........########",
"........########........########........########........########",
"........########........########........########........########",
"........########........########........########........########",
"........########........########........########........########",
"........########........########........########........########",
"........########........########........########........########",
"........########........########........########........########",
"########........########........########........########........",
"########........########........########........########........",
"########........########........########........########........",
"########........########........########........########........",
"########........########........########........########........",
"########........########........########........########........",
"########........########........########........########........",
"########........########........########........########........"};
